<?xml version="1.0" encoding="UTF-8"?>
<svg width="463px" height="422px" viewBox="0 0 463 422" version="1.1" xmlns="http://www.w3.org/2000/svg" xmlns:xlink="http://www.w3.org/1999/xlink">
    <!-- Generator: Sketch 63 (92445) - https://sketch.com -->
    <title>3946760</title>
    <desc>Created with Sketch.</desc>
    <defs>
        <polygon id="path-1" points="0 0.621 124.151 0.621 124.151 422 0 422"></polygon>
        <polygon id="path-3" points="0.652 0.185697922 457.96 0.185697922 457.96 62.794 0.652 62.794"></polygon>
    </defs>
    <g id="3946760" stroke="none" stroke-width="1" fill="none" fill-rule="evenodd">
        <g id="Group-4">
            <mask id="mask-2" fill="white">
                <use xlink:href="#path-1"></use>
            </mask>
            <g id="Clip-2"></g>
            <path d="M79.602,358.783 C79.997,358.078 80.389,357.251 80.108,356.493 C79.559,355.014 77.295,355.431 76.078,356.436 C72.671,359.25 71.125,364.522 66.846,365.628 C65.846,365.887 64.766,365.882 63.843,366.345 C61.968,367.287 61.489,369.672 60.865,371.675 C60.24,373.679 58.613,375.909 56.571,375.426 C55.432,375.158 54.673,374.121 53.753,373.397 C52.834,372.673 51.285,372.349 50.639,373.324 C50.197,373.991 50.445,374.874 50.657,375.646 C52.15,381.093 50.916,386.998 48.428,392.069 C45.941,397.14 42.278,401.524 38.651,405.854 C37.523,395.106 48.074,385.869 47.429,375.081 C47.273,372.477 46.457,369.951 46.203,367.355 C45.564,360.82 49.45,353.575 55.86,352.149 C57.027,351.889 58.375,351.742 59.078,350.774 C60.152,349.293 58.637,347.075 56.831,346.781 C55.027,346.487 53.273,347.424 51.684,348.328 C52.47,344.909 55.577,342.156 59.066,341.784 C60.81,341.599 62.64,341.947 64.285,341.336 C65.93,340.727 67.144,338.478 65.923,337.218 C63.989,335.22 60.164,338.936 58.027,337.157 C56.599,335.968 57.497,333.685 58.402,332.062 C59.306,330.44 59.894,327.952 58.245,327.097 C56.522,326.203 54.823,328.307 54.009,330.069 C49.571,339.673 45.133,349.278 40.695,358.882 C39.407,361.671 38.087,364.646 38.466,367.695 C38.729,369.806 39.785,371.72 40.556,373.703 C41.327,375.686 41.806,377.968 40.918,379.901 C40.03,381.834 37.284,382.957 35.67,381.571 C34.814,380.835 34.51,379.659 34.251,378.561 C33.194,374.074 32.138,369.367 33.319,364.911 C34.456,360.622 37.606,356.862 37.686,352.425 C37.747,349.023 36.009,345.36 37.67,342.39 C38.479,340.944 39.943,340.013 41.269,339.019 C42.595,338.024 43.912,336.775 44.169,335.137 C44.426,333.5 43.011,331.583 41.399,331.967 C39.151,332.502 38.931,336.475 36.624,336.607 C35.18,336.69 34.203,334.926 34.506,333.512 C34.808,332.097 35.924,331.021 36.985,330.037 C38.899,328.262 40.814,326.488 42.728,324.713 C44.087,323.453 45.575,321.749 45.006,319.987 C44.457,318.286 42.165,317.717 40.508,318.385 C38.852,319.054 37.702,320.553 36.635,321.986 C37,320.695 37.368,319.361 37.197,318.03 C37.025,316.699 36.17,315.361 34.864,315.052 C32.936,314.597 31.205,316.568 30.837,318.515 C30.47,320.462 30.939,322.478 30.727,324.448 C30.516,326.418 29.205,328.575 27.224,328.59 C25.465,328.603 24.106,326.818 23.994,325.064 C23.883,323.309 24.693,321.635 25.587,320.12 C26.481,318.607 27.496,317.112 27.866,315.393 C28.237,313.674 27.776,311.627 26.272,310.717 C24.768,309.807 22.322,310.838 22.395,312.594 C22.049,310.419 20.994,307.645 18.799,307.825 C16.736,307.993 16.026,310.648 16.013,312.718 C15.973,319.13 17.498,325.546 20.418,331.255 C22.204,334.748 24.498,337.97 26.182,341.513 C27.867,345.057 28.929,349.089 28.038,352.91 C27.495,355.237 26.265,357.338 25.429,359.576 C23.207,365.53 23.963,372.514 27.408,377.854 C25.984,377.984 24.837,376.799 23.716,375.91 C22.596,375.022 20.786,374.437 19.874,375.538 C19.207,376.344 19.51,377.621 20.22,378.389 C20.93,379.157 21.935,379.561 22.869,380.031 C27.368,382.291 30.781,386.61 31.942,391.509 C29.314,391.841 27.159,387.509 24.891,388.878 C23.41,389.773 24.074,392.195 25.456,393.237 C26.837,394.28 28.661,394.64 29.965,395.777 C31.95,397.505 32.061,400.955 30.192,402.808 C28.322,404.659 25.417,403.876 23.163,402.518 C15.989,398.193 14.593,390.314 14.593,390.314 C13.208,386.212 14.85,381.719 15.345,378.424 C15.95,374.395 18.741,370.888 19.063,366.827 C19.397,362.62 17.272,358.105 19.164,354.332 C20.1,352.466 21.859,351.184 23.36,349.733 C24.86,348.282 26.217,346.353 25.945,344.284 C25.673,342.214 22.902,340.617 21.393,342.059 C20.649,342.769 20.328,344.033 19.323,344.25 C18.301,344.471 17.444,343.316 17.435,342.271 C17.426,341.226 17.94,340.256 18.192,339.242 C18.444,338.228 18.331,336.958 17.437,336.417 C16.47,335.833 15.14,336.517 14.632,337.526 C14.124,338.534 14.206,339.727 14.299,340.853 C14.559,343.982 14.819,347.111 15.078,350.24 C15.147,351.065 15.109,352.091 14.367,352.459 C13.659,352.81 12.84,352.283 12.276,351.729 C9.583,349.089 8.239,345.243 8.277,341.473 C8.315,337.703 9.652,334.019 11.681,330.84 C12.634,329.347 13.751,327.929 14.362,326.266 C14.973,324.604 14.979,322.575 13.832,321.226 C12.685,319.875 10.193,319.74 9.281,321.258 C8.496,322.567 9.161,324.218 9.294,325.738 C9.594,329.147 7.138,332.085 5.684,335.184 C2.916,341.081 3.945,348.564 8.203,353.495 C9.589,355.1 11.267,356.437 12.591,358.092 C13.915,359.747 14.885,361.869 14.492,363.951 C14.099,366.034 11.915,367.823 9.891,367.196 C8.249,366.687 7.352,364.919 6.945,363.249 C6.537,361.579 6.414,359.789 5.519,358.322 C4.625,356.854 2.556,355.888 1.16,356.892 C0.22,357.568 -0.049,358.859 0.007,360.016 C0.269,365.393 5.54,369.008 7.915,373.838 C9.743,377.556 9.745,382.12 7.919,385.839 C7.06,384.487 6.104,383.051 4.611,382.467 C3.118,381.882 1.004,382.702 0.926,384.303 C0.884,385.163 1.42,385.94 1.993,386.581 C3.646,388.431 5.838,389.791 8.228,390.452 C7.736,394.677 10.228,398.719 13.297,401.662 C16.366,404.607 20.072,406.832 23.086,409.832 C26.099,412.833 28.282,417.811 27.553,422 L46.675,421.867 C46.922,417.863 49.896,414.17 53.757,413.075 C55.786,412.5 57.99,412.585 59.935,411.769 C61.881,410.953 63.507,408.646 62.521,406.781 C61.912,405.629 60.501,405.09 59.2,405.143 C57.898,405.195 56.671,405.729 55.479,406.255 C56.599,405.424 56.779,403.592 55.844,402.558 C54.908,401.525 53.068,401.523 52.129,402.553 C51.243,403.528 51.253,405.004 50.717,406.207 C50.181,407.41 48.315,408.236 47.651,407.098 C47.319,406.531 47.528,405.813 47.743,405.192 C48.868,401.95 50.098,398.548 52.708,396.32 C58.092,391.722 67.31,393.752 72.143,388.578 C73.039,387.619 73.742,386.295 73.403,385.028 C72.828,382.88 69.797,382.512 67.775,383.437 C65.753,384.363 64.126,386.084 61.998,386.73 C59.871,387.375 56.89,386.048 57.205,383.847 C57.402,382.47 58.804,381.577 60.162,381.276 C61.52,380.973 62.949,381.066 64.289,380.691 C65.628,380.316 66.949,379.241 66.921,377.849 C66.898,376.753 65.564,375.936 64.65,376.221 C70.713,371.463 75.828,365.503 79.602,358.783" id="Fill-1" fill="#E4E4DE" mask="url(#mask-2)"></path>
            <path d="M124.151,28.723 C124.151,44.243 111.569,56.825 96.049,56.825 C80.529,56.825 67.947,44.243 67.947,28.723 C67.947,13.203 80.529,0.621 96.049,0.621 C111.569,0.621 124.151,13.203 124.151,28.723" id="Fill-3" fill="#E4E4DE" mask="url(#mask-2)"></path>
        </g>
        <path d="M75.56,78.269 C75.56,89.919 66.116,99.363 54.466,99.363 C42.817,99.363 33.373,89.919 33.373,78.269 C33.373,66.62 42.817,57.176 54.466,57.176 C66.116,57.176 75.56,66.62 75.56,78.269" id="Fill-5" fill="#E4E4DE"></path>
        <path d="M441.92,86.027 C441.92,96.611 433.341,105.191 422.757,105.191 C412.173,105.191 403.594,96.611 403.594,86.027 C403.594,75.444 412.173,66.864 422.757,66.864 C433.341,66.864 441.92,75.444 441.92,86.027" id="Fill-6" fill="#D4D5CF"></path>
        <path d="M40.102,3.389 C47.097,3.389 52.768,9.06 52.768,16.056 C52.768,23.052 47.097,28.723 40.102,28.723 C33.106,28.723 27.435,23.052 27.435,16.056 C27.435,9.06 33.106,3.389 40.102,3.389" id="Fill-7" fill="#E4E4DE"></path>
        <path d="M386.987,48.182 C391.181,43.988 397.982,43.988 402.176,48.182 C406.371,52.377 406.371,59.178 402.176,63.372 C397.982,67.567 391.181,67.567 386.987,63.372 C382.792,59.178 382.792,52.377 386.987,48.182" id="Fill-8" fill="#D4D5CF"></path>
        <path d="M430.895,37.505 C435.389,37.505 439.032,41.149 439.032,45.643 C439.032,50.138 435.389,53.781 430.895,53.781 C426.401,53.781 422.757,50.138 422.757,45.643 C422.757,41.149 426.401,37.505 430.895,37.505" id="Fill-9" fill="#D4D5CF"></path>
        <path d="M406.738,340.858 C410.688,367.616 414.637,394.372 418.586,421.13 L421.67,421.226 C419.703,393.961 417.609,366.154 406.738,340.858" id="Fill-10" fill="#D4D5CF"></path>
        <path d="M439.644,332.802 C431.367,341.868 428.039,354.339 425.944,366.435 C422.971,383.588 422.7,403.84 423.591,421.226 L427.916,421.323 C426.163,391.293 430.223,361.369 439.644,332.802" id="Fill-11" fill="#D4D5CF"></path>
        <path d="M408.916,396.992 C407.965,394.064 406.877,391.083 404.49,388.589 C401.268,385.218 396.017,383.087 390.733,381.428 C385.448,379.769 379.89,378.442 375.116,376.145 C380.443,382.265 392.533,383.894 398.691,389.617 C401.754,392.466 403.025,396.038 404.225,399.504 C406.843,407.061 408.454,413.601 411.071,421.158 L414.575,421.158 C413.42,412.946 411.529,405.037 408.916,396.992" id="Fill-12" fill="#D4D5CF"></path>
        <g id="Group-16" transform="translate(5.000000, 359.000000)">
            <mask id="mask-4" fill="white">
                <use xlink:href="#path-3"></use>
            </mask>
            <g id="Clip-14"></g>
            <path d="M426.072,62.226 C426.072,62.226 429.04,28.717 431.24,22.565 C433.44,16.412 454.238,-0.587 454.039,0.213 C453.839,1.014 438.44,19.613 436.239,23.412 C434.04,27.212 430.24,62.226 430.24,62.226 L426.072,62.226" id="Fill-13" fill="#D4D5CF" mask="url(#mask-4)"></path>
            <path d="M457.997,62.293 C457.997,62.438 355.609,62.554 229.335,62.554 C103.019,62.554 0.652,62.438 0.652,62.293 C0.652,62.15 103.019,62.034 229.335,62.034 C355.609,62.034 457.997,62.15 457.997,62.293" id="Fill-15" fill="#132529" mask="url(#mask-4)"></path>
        </g>
        <path d="M430.294,226.198 C430.294,152.12 389.008,87.686 328.192,54.649 L146.736,52.264 C81.986,84.006 40.102,149.222 40.102,226.198 C40.102,307.499 89.837,377.174 160.538,406.486 L143.527,406.486 C139.438,406.486 136.123,409.8 136.123,413.89 C136.123,417.979 139.438,421.293 143.527,421.293 L326.868,421.293 C330.957,421.293 334.273,417.979 334.273,413.89 C334.273,409.8 330.957,406.486 326.868,406.486 L309.857,406.486 C380.558,377.174 430.294,307.499 430.294,226.198" id="Fill-17" fill="#FAF9F6"></path>
        <path d="M430.293,226.198 C430.293,226.198 430.286,227.581 430.244,230.279 C430.247,232.978 430.052,236.987 429.686,242.23 C428.806,252.678 426.851,268.184 420.667,287.142 C417.57,296.601 413.379,306.879 407.752,317.592 C404.843,322.892 401.752,328.4 398.074,333.832 C397.626,334.519 397.175,335.208 396.723,335.901 C396.245,336.576 395.766,337.256 395.283,337.938 C394.314,339.298 393.36,340.689 392.352,342.059 C390.283,344.761 388.224,347.548 385.945,350.239 C383.748,352.996 381.321,355.639 378.906,358.367 C377.652,359.688 376.386,361.02 375.112,362.363 C373.85,363.719 372.473,364.981 371.143,366.311 C365.736,371.537 359.904,376.671 353.551,381.504 C340.85,391.156 326.263,399.864 309.932,406.667 L309.857,406.289 C314.503,406.287 319.211,406.285 323.979,406.284 C325.179,406.3 326.349,406.247 327.584,406.32 C328.813,406.432 330.008,406.864 331.048,407.536 C332.085,408.218 332.944,409.166 333.553,410.253 C334.143,411.354 334.463,412.6 334.477,413.855 C334.48,415.111 334.163,416.367 333.576,417.486 C332.969,418.592 332.097,419.562 331.032,420.257 C329.965,420.939 328.73,421.398 327.45,421.474 C326.177,421.533 324.952,421.491 323.695,421.504 C318.693,421.505 313.633,421.507 308.519,421.508 C288.061,421.513 266.717,421.518 244.59,421.524 C222.464,421.528 199.554,421.532 175.966,421.535 C170.068,421.536 164.128,421.537 158.148,421.538 C155.157,421.539 152.157,421.539 149.146,421.539 C147.641,421.54 146.133,421.54 144.623,421.54 C143.146,421.597 141.48,421.471 140.098,420.723 C138.692,420.028 137.528,418.875 136.779,417.495 C136.042,416.106 135.74,414.49 135.942,412.926 C136.297,409.77 138.833,407.01 141.973,406.395 C142.751,406.24 143.56,406.229 144.317,406.236 L146.624,406.236 C148.163,406.236 149.704,406.235 151.248,406.235 C154.336,406.235 157.433,406.235 160.538,406.234 L160.442,406.718 C135.546,396.397 111.898,380.385 92.354,359.415 C72.799,338.501 57.376,312.646 48.583,284.124 C44.999,272.412 42.481,260.453 41.101,248.447 C39.772,236.433 39.555,224.394 40.298,212.518 C41.08,200.641 42.917,188.937 45.659,177.565 C48.508,166.22 52.244,155.197 56.944,144.722 C66.338,123.77 79.323,104.963 94.767,89.355 C110.162,73.673 127.979,61.247 146.631,52.051 L146.682,52.025 L146.738,52.025 C214.369,52.933 275.519,53.753 328.195,54.459 L328.241,54.46 L328.282,54.482 C342.509,62.237 355.052,71.388 365.898,81.139 C371.339,86.001 376.281,91.097 380.866,96.212 C383.185,98.749 385.313,101.38 387.44,103.938 C389.48,106.567 391.52,109.126 393.373,111.757 C395.302,114.332 397.014,116.992 398.766,119.554 C400.404,122.191 402.09,124.731 403.559,127.337 C406.631,132.469 409.232,137.603 411.64,142.558 C416.332,152.534 419.808,162.015 422.37,170.7 C427.481,188.101 429.079,202.178 429.804,211.665 C430.101,216.424 430.261,220.057 430.257,222.502 C430.293,224.946 430.293,226.198 430.293,226.198 C430.293,226.198 430.253,224.946 430.201,222.503 C430.188,220.06 430.009,216.428 429.695,211.673 C428.937,202.194 427.305,188.133 422.169,170.759 C419.594,162.089 416.109,152.624 411.408,142.668 C408.996,137.723 406.393,132.599 403.319,127.479 C401.849,124.879 400.162,122.343 398.523,119.713 C396.771,117.156 395.059,114.502 393.13,111.933 C391.277,109.309 389.237,106.755 387.197,104.133 C385.07,101.581 382.944,98.957 380.627,96.426 C376.044,91.324 371.105,86.241 365.669,81.392 C354.833,71.668 342.306,62.544 328.102,54.815 L328.19,54.838 C275.514,54.16 214.363,53.372 146.733,52.501 L146.84,52.476 C128.237,61.658 110.469,74.057 95.119,89.702 C79.72,105.273 66.774,124.033 57.408,144.93 C52.722,155.377 48.998,166.371 46.158,177.687 C43.425,189.031 41.593,200.705 40.814,212.551 C40.075,224.399 40.292,236.407 41.617,248.388 C42.994,260.363 45.506,272.289 49.081,283.97 C57.85,312.414 73.23,338.201 92.731,359.063 C112.221,379.98 135.805,395.953 160.635,406.253 L161.802,406.738 L160.538,406.737 C157.433,406.737 154.336,406.737 151.248,406.736 C149.704,406.736 148.163,406.736 146.624,406.736 L144.317,406.736 C143.538,406.729 142.805,406.74 142.074,406.883 C139.14,407.457 136.766,410.039 136.434,412.988 C136.246,414.451 136.528,415.962 137.216,417.261 C137.917,418.551 139.006,419.631 140.32,420.281 C140.969,420.62 141.679,420.835 142.4,420.95 C143.114,421.077 143.861,421.042 144.623,421.047 C146.133,421.047 147.641,421.047 149.146,421.048 C152.157,421.048 155.157,421.048 158.148,421.049 C164.128,421.05 170.068,421.051 175.966,421.051 C199.554,421.056 222.464,421.06 244.59,421.064 C266.717,421.07 288.061,421.075 308.519,421.079 C313.633,421.08 318.693,421.082 323.695,421.083 C324.938,421.072 326.209,421.113 327.419,421.057 C328.629,420.986 329.794,420.552 330.805,419.909 C331.811,419.252 332.637,418.335 333.211,417.289 C333.766,416.233 334.067,415.046 334.065,413.857 C334.052,412.668 333.75,411.491 333.194,410.45 C332.616,409.42 331.806,408.522 330.824,407.876 C329.84,407.24 328.709,406.829 327.546,406.722 C326.387,406.654 325.162,406.702 323.979,406.687 C319.211,406.685 314.503,406.684 309.857,406.682 L308.873,406.682 L309.781,406.304 C326.084,399.526 340.65,390.845 353.336,381.222 C359.681,376.403 365.506,371.283 370.909,366.071 C372.238,364.744 373.614,363.486 374.875,362.132 C376.15,360.793 377.413,359.465 378.667,358.147 C381.082,355.427 383.507,352.79 385.702,350.039 C387.981,347.356 390.04,344.575 392.109,341.879 C393.115,340.512 394.07,339.125 395.04,337.768 C395.523,337.087 396.002,336.409 396.48,335.736 C396.933,335.044 397.383,334.357 397.831,333.672 C401.51,328.251 404.603,322.755 407.516,317.466 C413.149,306.776 417.348,296.517 420.458,287.074 C426.667,268.148 428.656,252.659 429.572,242.221 C429.956,236.982 430.17,232.975 430.187,230.278 C430.247,227.581 430.293,226.198 430.293,226.198" id="Fill-18" fill="#132529"></path>
        <path d="M328.192,54.649 C328.192,54.649 328.039,54.701 327.735,54.776 C327.408,54.854 326.959,54.962 326.382,55.1 C325.165,55.379 323.412,55.782 321.166,56.297 C316.645,57.373 310.05,58.697 301.877,60.203 C299.826,60.544 297.679,60.9 295.442,61.27 C294.322,61.455 293.181,61.644 292.018,61.837 C290.85,61.995 289.659,62.156 288.449,62.32 C286.027,62.643 283.521,62.976 280.941,63.32 C278.354,63.608 275.685,63.849 272.95,64.127 C262.008,65.127 249.915,65.685 237.231,65.369 C211.833,64.655 189.094,60.854 172.778,57.805 C164.62,56.223 158.032,54.877 153.499,53.859 C151.249,53.36 149.493,52.971 148.275,52.702 C147.697,52.568 147.247,52.463 146.92,52.388 C146.615,52.314 146.462,52.264 146.462,52.264 C146.462,52.264 146.623,52.279 146.931,52.336 C147.261,52.399 147.715,52.487 148.298,52.599 C149.52,52.846 151.282,53.203 153.54,53.66 C158.086,54.618 164.683,55.908 172.845,57.443 C189.171,60.398 211.892,64.136 237.244,64.849 C249.907,65.164 261.978,64.621 272.907,63.649 C275.638,63.381 278.3,63.119 280.888,62.865 C283.466,62.531 285.969,62.206 288.39,61.892 C289.6,61.734 290.789,61.578 291.957,61.424 C293.119,61.237 294.261,61.054 295.379,60.873 C297.616,60.515 299.764,60.17 301.814,59.841 C309.987,58.382 316.59,57.114 321.123,56.099 C323.378,55.625 325.138,55.255 326.359,54.998 C326.941,54.881 327.394,54.79 327.723,54.724 C328.031,54.666 328.192,54.649 328.192,54.649" id="Fill-19" fill="#132529"></path>
        <path d="M357.529,96.636 C392.176,128.978 413.837,175.054 413.837,226.19 C413.837,324.05 334.506,403.381 236.646,403.381 C138.785,403.381 59.454,324.05 59.454,226.19 C59.454,178.41 78.365,135.048 109.111,103.179 C109.111,103.179 127.731,98.572 155.2,106.252 C182.67,113.933 197.482,122.711 224.912,115.03 C252.342,107.35 250.696,97.991 275.932,96.636 C301.168,95.281 310.945,101.864 329.098,104.607 C347.25,107.35 357.529,96.636 357.529,96.636" id="Fill-20" fill="#D4D5CF"></path>
        <path d="M396.177204,139.675 C396.196,139.788 394.887,140.06 392.464,140.754 C390.04,141.44 386.538,142.743 382.354,145.046 C378.178,147.362 373.397,150.782 368.32,155.313 C365.773,157.57 363.135,160.084 360.397,162.821 C357.651,165.548 354.811,168.509 351.713,171.533 C345.525,177.528 338.392,184.045 329.139,188.738 C324.543,191.093 319.317,192.725 313.784,193.296 C308.233,193.812 302.525,193.083 296.914,191.895 C291.285,190.72 285.663,189.149 279.877,188.103 C276.984,187.617 274.052,187.244 271.097,187.185 C268.147,187.176 265.186,187.423 262.281,188.143 C261.542,188.261 260.838,188.532 260.12,188.75 C259.408,188.989 258.678,189.177 257.975,189.456 C256.591,190.071 255.153,190.57 253.818,191.336 C253.142,191.697 252.452,192.034 251.782,192.415 L249.806,193.635 C249.137,194.026 248.495,194.471 247.859,194.927 L245.936,196.279 C240.889,200.058 236.163,204.466 231.293,208.9 C226.408,213.311 221.486,217.705 215.951,221.203 C213.225,223.007 210.329,224.472 207.44,225.861 C204.509,227.159 201.562,228.364 198.56,229.301 C186.564,233.171 174.434,234.424 163.011,234.85 C151.564,235.249 140.733,234.867 130.627,234.934 C120.525,234.967 111.127,235.431 102.674,236.737 C94.22,238.009 86.754,240.194 80.478,242.762 C74.209,245.36 69.16,248.382 65.323,251.223 C57.664,256.993 54.704,261.589 54.466,261.37 C54.402,261.323 55.146,260.213 56.713,258.2 C58.355,256.255 60.893,253.44 64.706,250.419 C68.512,247.406 73.58,244.196 79.909,241.422 C86.243,238.678 93.807,236.33 102.383,234.919 C110.949,233.476 120.453,232.902 130.607,232.775 C140.762,232.614 151.591,232.914 162.919,232.452 C174.215,231.968 186.128,230.67 197.768,226.876 C200.684,225.957 203.532,224.783 206.362,223.524 C209.147,222.175 211.938,220.761 214.553,219.023 C219.859,215.663 224.682,211.364 229.543,206.973 C234.39,202.561 239.18,198.092 244.394,194.197 L246.392,192.795 C247.053,192.324 247.721,191.864 248.424,191.452 L250.497,190.18 C251.202,189.78 251.933,189.422 252.648,189.043 C254.056,188.242 255.595,187.702 257.07,187.058 C257.82,186.763 258.605,186.558 259.368,186.305 C260.14,186.074 260.894,185.79 261.69,185.662 C264.814,184.897 268.012,184.639 271.142,184.663 C274.276,184.737 277.332,185.14 280.315,185.655 C286.265,186.759 291.896,188.365 297.41,189.548 C302.913,190.747 308.359,191.462 313.578,191.016 C318.785,190.513 323.748,189.025 328.185,186.801 C337.114,182.383 344.221,176.073 350.436,170.206 C353.545,167.253 356.431,164.335 359.237,161.638 C362.034,158.934 364.743,156.444 367.365,154.214 C372.592,149.735 377.548,146.371 381.875,144.153 C386.212,141.945 389.834,140.776 392.331,140.246 C393.566,139.922 394.547,139.851 395.189,139.74 C395.836,139.652963 396.169,139.631 396.177204,139.675" id="Fill-21" fill="#F1F0EC"></path>
        <path d="M63.692,271.535 C67.292,254.063 85.141,242.608 102.791,240.009 C120.44,237.411 138.274,241.599 155.887,244.431 C173.501,247.263 192.367,248.578 208.424,240.805 C229.529,230.587 242.548,206.178 265.291,200.471 C284.401,195.677 304.806,205.767 324.02,201.409 C339.465,197.907 351.306,185.744 361.412,173.55 C371.519,161.356 381.362,148.131 395.491,140.975 L405.862,161.196 C405.862,161.196 377.722,182.702 368.034,194.771 C358.347,206.84 347.779,218.763 310.767,219.704 C310.767,219.704 278.911,212.425 266.04,217.244 C253.169,222.063 226.744,261.96 207.896,265.769 C189.048,269.577 135.536,257.017 115.239,262.144 C94.942,267.271 73.183,294.693 73.183,294.693 L63.692,271.535" id="Fill-22" fill="#F1F0EC"></path>
        <path d="M199.566,277.24 L164.421,282.254 L160.396,254.051 C159.011,244.346 165.756,235.356 175.461,233.971 C185.166,232.586 194.156,239.33 195.541,249.035 L199.566,277.24 Z M127.884,216.726 L147.672,355.387 L234.292,343.026 L214.505,204.366 L127.884,216.726 L127.884,216.726 Z" id="Fill-23" fill="#132529"></path>
        <polyline id="Fill-24" fill="#132529" points="217.257 171.057 219.352 185.742 203.27 188.037 201.175 173.352 188.645 175.14 190.741 189.825 174.659 192.12 172.563 177.435 160.033 179.223 162.129 193.908 146.047 196.203 143.951 181.518 131.422 183.306 133.517 197.991 117.435 200.286 115.34 185.601 107.372 186.738 113.245 227.894 228.781 211.407 222.908 170.25 217.257 171.057"></polyline>
        <path d="M226.110012,194.771 C226.13,194.913 200.239,198.726 168.288,203.285 C136.325,207.847 110.407,211.427 110.385988,211.285 C110.366,211.143 136.252,207.331 168.214,202.77 C200.165,198.21 226.09,194.629 226.110012,194.771" id="Fill-25" fill="#334F55"></path>
        <path d="M227.915013,211.53 C227.936,211.672 202.301,215.448 170.668,219.962 C139.023,224.478 113.361,228.023 113.340987,227.88 C113.32,227.738 138.949,223.962 170.594,219.447 C202.228,214.932 227.895,211.387 227.915013,211.53" id="Fill-26" fill="#334F55"></path>
        <path d="M127.903,208.985 C127.76,209.005 127.338,206.87 126.959,204.218 C126.58,201.564 126.389,199.397 126.531,199.377 C126.674,199.357 127.096,201.491 127.475,204.144 C127.853,206.797 128.045,208.965 127.903,208.985" id="Fill-27" fill="#334F55"></path>
        <path d="M148.029,222.93008 C147.886,222.95 147.238,219.233 146.581,214.628 C145.924,210.023 145.507,206.273 145.649,206.25292 C145.791,206.233 146.44,209.949 147.097,214.555 C147.754,219.159 148.171,222.909 148.029,222.93008" id="Fill-28" fill="#334F55"></path>
        <path d="M194.616,216.28208 C194.473,216.302 193.825,212.585 193.168,207.981 C192.511,203.374 192.093,199.625 192.236,199.604911 C192.378,199.584 193.027,203.301 193.684,207.907 C194.341,212.511 194.758,216.261 194.616,216.28208" id="Fill-29" fill="#334F55"></path>
        <path d="M204.696,198.026 C204.553,198.046 204.083,195.573 203.645,192.504 C203.207,189.433 202.967,186.928 203.11,186.908 C203.252,186.888 203.722,189.359 204.16,192.43 C204.598,195.5 204.838,198.005 204.696,198.026" id="Fill-30" fill="#334F55"></path>
        <path d="M163.486,204.152 C163.343,204.173 162.906,201.93 162.508,199.145 C162.111,196.359 161.904,194.084 162.046,194.064 C162.189,194.043 162.626,196.285 163.024,199.072 C163.421,201.857 163.628,204.132 163.486,204.152" id="Fill-31" fill="#334F55"></path>
        <path d="M217.866015,227.919 C217.886,228.062 198.51,230.945 174.595,234.358 C150.671,237.772 131.266,240.423 131.245985,240.281 C131.226,240.138 150.597,237.256 174.521,233.842 C198.437,230.429 217.845,227.778 217.866015,227.919" id="Fill-32" fill="#334F55"></path>
        <path d="M160.503051,253.698 C160.523,253.84 154.641,254.797 147.366,255.835 C140.089,256.873 134.175,257.6 134.154949,257.457 C134.135,257.315 140.015,256.358 147.293,255.32 C154.568,254.282 160.483,253.555 160.503051,253.698" id="Fill-33" fill="#334F55"></path>
        <path d="M219.502058,245.492 C219.522,245.634 214.342,246.491 207.933,247.406 C201.523,248.321 196.311,248.947 196.289942,248.804 C196.27,248.661 201.449,247.805 207.86,246.89 C214.268,245.975 219.481,245.349 219.502058,245.492" id="Fill-34" fill="#334F55"></path>
        <path d="M163.039056,271.472 C163.06,271.615 157.131,272.578 149.798,273.624 C142.464,274.671 136.503,275.404 136.48195,275.262 C136.462,275.119 142.39,274.156 149.725,273.109 C157.057,272.063 163.019,271.329 163.039056,271.472" id="Fill-35" fill="#334F55"></path>
        <path d="M222.424062,262.144 C222.445,262.286 217.098,263.167 210.484,264.111 C203.867,265.055 198.489,265.705 198.467944,265.563 C198.448,265.42 203.794,264.539 210.41,263.595 C217.025,262.652 222.404,262.001 222.424062,262.144" id="Fill-36" fill="#334F55"></path>
        <path d="M225.321017,278.8 C225.342,278.943 205.93,281.83 181.97,285.249 C158.002,288.67 138.561,291.326 138.540985,291.184 C138.521,291.041 157.928,288.155 181.897,284.734 C205.857,281.315 225.301,278.658 225.321017,278.8" id="Fill-37" fill="#334F55"></path>
        <path d="M227.590015,294.693 C227.61,294.834 208.198,297.723 184.238,301.142 C160.27,304.562 140.829,307.219 140.808985,307.076 C140.789,306.934 160.196,304.046 184.165,300.626 C208.125,297.207 227.569,294.55 227.590015,294.693" id="Fill-38" fill="#334F55"></path>
        <path d="M229.977015,311.421 C229.997,311.564 210.586,314.451 186.625,317.87 C162.657,321.291 143.216,323.948 143.195985,323.805 C143.176,323.662 162.583,320.776 186.552,317.355 C210.512,313.936 229.957,311.279 229.977015,311.421" id="Fill-39" fill="#334F55"></path>
        <path d="M232.364015,328.15 C232.384,328.292 212.973,331.18 189.012,334.599 C165.044,338.02 145.604,340.676 145.583983,340.534 C145.563,340.391 164.97,337.504 188.939,334.083 C212.899,330.664 232.344,328.007 232.364015,328.15" id="Fill-40" fill="#334F55"></path>
        <path d="M175.968,234.0011 C175.825,234.022 175.239,230.735 174.657,226.659 C174.075,222.583 173.719,219.264 173.862,219.242909 C174.004,219.223 174.591,222.51 175.173,226.586 C175.754,230.66 176.111,233.981 175.968,234.0011" id="Fill-41" fill="#334F55"></path>
        <path d="M155.619,288.746096 C155.477,288.767 154.87,285.339 154.264,281.092 C153.658,276.843 153.282,273.383 153.424,273.363904 C153.567,273.343 154.173,276.77 154.779,281.019 C155.386,285.266 155.762,288.727 155.619,288.746096" id="Fill-42" fill="#334F55"></path>
        <path d="M160.171,320.641087 C160.029,320.661 159.422,317.234 158.816,312.987 C158.209,308.738 157.833,305.278 157.976,305.257913 C158.118,305.238 158.725,308.664 159.331,312.913 C159.937,317.16 160.313,320.621 160.171,320.641087" id="Fill-43" fill="#334F55"></path>
        <path d="M164.834,353.319087 C164.692,353.339 164.085,349.911 163.479,345.664 C162.872,341.415 162.496,337.955 162.639,337.934913 C162.781,337.915 163.388,341.341 163.994,345.59 C164.6,349.838 164.976,353.298 164.834,353.319087" id="Fill-44" fill="#334F55"></path>
        <path d="M150.815,255.080077 C150.673,255.1 149.999,251.206 149.311,246.384 C148.623,241.56 148.18,237.633 148.322,237.612923 C148.465,237.593 149.138,241.486 149.826,246.31 C150.515,251.133 150.957,255.06 150.815,255.080077" id="Fill-45" fill="#334F55"></path>
        <path d="M208.389,246.865069 C208.246,246.884 207.573,242.991 206.885,238.168 C206.196,233.343 205.754,229.417 205.896,229.396915 C206.039,229.376 206.712,233.27 207.401,238.094 C208.089,242.916 208.531,246.844 208.389,246.865069" id="Fill-46" fill="#334F55"></path>
        <path d="M213.163,280.319066 C213.02,280.337 212.426,276.647 211.837,272.078 C211.246,267.508 210.883,263.789 211.027,263.770927 C211.169,263.752 211.763,267.441 212.353,272.011 C212.943,276.58 213.305,280.3 213.163,280.319066" id="Fill-47" fill="#334F55"></path>
        <path d="M217.723,313.062059 C217.581,313.079 216.987,309.39 216.397,304.822 C215.806,300.251 215.444,296.532 215.587,296.513927 C215.729,296.495 216.323,300.184 216.913,304.754 C217.503,309.324 217.866,313.043 217.723,313.062059" id="Fill-48" fill="#334F55"></path>
        <path d="M222.384,344.725076 C222.242,344.743 221.713,341.554 221.202,337.602 C220.692,333.649 220.394,330.431 220.536,330.411924 C220.679,330.394 221.208,333.582 221.718,337.535 C222.229,341.488 222.527,344.706 222.384,344.725076" id="Fill-49" fill="#334F55"></path>
        <path d="M187.256,300.449061 C187.113,300.466 186.539,296.927 185.973,292.543 C185.406,288.158 185.063,284.589 185.206,284.570924 C185.348,284.552 185.923,288.091 186.489,292.476 C187.055,296.86 187.399,300.43 187.256,300.449061" id="Fill-50" fill="#334F55"></path>
        <path d="M192.248,334.534076 C192.106,334.553 191.531,331.014 190.965,326.63 C190.399,322.244 190.055,318.675 190.198,318.657924 C190.341,318.639 190.915,322.178 191.481,326.563 C192.048,330.947 192.391,334.516 192.248,334.534076" id="Fill-51" fill="#334F55"></path>
        <path d="M372.973,339.18 C372.973,339.18 355.699,357.887 345.679,365.74 C315.585,389.323 277.672,403.381 236.475,403.381 C191.878,403.381 151.129,386.906 119.982,359.708 C114.228,354.684 108.801,349.292 103.738,343.573 C103.738,343.573 116.04,332.184 127.363,335.833 C138.686,339.484 195.611,350.882 215.135,343.296 C234.659,335.709 261.618,323.309 290.734,324.926 C319.85,326.543 339.828,350.2 372.973,339.18" id="Fill-52" fill="#334F55"></path>
        <path d="M216.037,358.123 C219.697,364.115 225.658,368.661 232.404,370.608 C239.151,372.555 246.616,371.882 252.906,368.762 C256.825,366.819 260.36,363.946 264.617,362.94 C272.168,361.156 280.819,365.515 287.535,361.633 C289.195,360.674 290.696,358.904 290.306,357.028 C289.853,354.847 287.259,353.945 285.052,353.642 C272.575,351.928 260.029,356.772 247.456,356.058 C242.172,355.758 236.984,354.479 231.702,354.127 C226.422,353.776 220.795,354.472 216.574,357.665" id="Fill-53" fill="#132529"></path>
        <path d="M138.569,84.297 C138.623,84.369 137.755,85.172 136.058,86.631 C135.201,87.357 134.146,88.25 132.902,89.304 C132.274,89.827 131.599,90.39 130.878,90.992 C130.168,91.608 129.457,92.316 128.677,93.036 C127.128,94.483 125.405,96.091 123.521,97.851 C121.683,99.658 119.795,101.732 117.703,103.892 C115.559,106.006 113.58,108.553 111.346,111.127 C109.067,113.667 106.972,116.606 104.682,119.616 C104.112,120.37 103.536,121.134 102.952,121.906 C102.378,122.684 101.862,123.518 101.304,124.336 C100.204,125.982 99.081,127.664 97.935,129.38 C96.739,131.065 95.754,132.932 94.645,134.767 C93.571,136.623 92.42,138.482 91.351,140.43 C90.335,142.406 89.302,144.416 88.253,146.459 C87.736,147.485 87.178,148.5 86.684,149.555 C86.211,150.621 85.735,151.695 85.255,152.777 C84.311,154.947 83.285,157.12 82.367,159.372 C81.508,161.65 80.638,163.957 79.757,166.294 C78.812,168.608 78.148,171.052 77.364,173.485 C76.622,175.931 75.756,178.373 75.189,180.927 C74.554,183.462 73.914,186.024 73.267,188.61 C72.774,191.23 72.276,193.875 71.774,196.544 C69.988,207.253 69.062,218.498 69.316,230.013 C69.721,241.528 71.288,252.703 73.684,263.296 C74.339,265.933 74.987,268.545 75.63,271.133 C76.424,273.679 77.21,276.2 77.989,278.696 C78.7,281.214 79.705,283.602 80.586,286.002 C81.509,288.387 82.311,290.789 83.387,293.046 C84.401,295.328 85.402,297.583 86.389,299.808 C87.436,302.004 88.584,304.116 89.651,306.228 C90.192,307.281 90.729,308.325 91.262,309.363 C91.817,310.388 92.431,311.369 93.006,312.364 C94.171,314.343 95.317,316.291 96.444,318.207 C97.624,320.09 98.878,321.88 100.057,323.672 C101.269,325.441 102.361,327.248 103.651,328.862 C104.893,330.51 106.111,332.124 107.303,333.705 C107.906,334.489 108.469,335.292 109.088,336.036 C109.715,336.774 110.334,337.503 110.946,338.224 C113.404,341.098 115.664,343.912 118.085,346.317 C120.463,348.759 122.585,351.188 124.845,353.176 C127.057,355.212 129.06,357.175 130.999,358.873 C132.981,360.522 134.792,362.03 136.423,363.386 C137.241,364.059 137.992,364.725 138.736,365.299 C139.49,365.859 140.196,366.382 140.852,366.868 C142.155,367.85 143.259,368.681 144.156,369.356 C145.934,370.715 146.845,371.467 146.796,371.542 C146.747,371.617 145.738,371.012 143.858,369.787 C142.919,369.165 141.762,368.399 140.397,367.494 C139.715,367.036 138.982,366.542 138.197,366.015 C137.425,365.469 136.647,364.831 135.799,364.185 C134.114,362.872 132.243,361.414 130.195,359.819 C128.195,358.165 126.127,356.242 123.849,354.238 C121.522,352.283 119.333,349.881 116.887,347.46 C114.397,345.076 112.068,342.277 109.539,339.411 C108.909,338.692 108.272,337.964 107.628,337.228 C106.991,336.485 106.411,335.682 105.79,334.899 C104.564,333.318 103.31,331.701 102.031,330.052 C100.707,328.436 99.581,326.623 98.334,324.848 C97.12,323.05 95.831,321.251 94.618,319.359 C93.458,317.432 92.277,315.472 91.079,313.481 C90.488,312.48 89.857,311.491 89.286,310.457 C88.738,309.412 88.184,308.359 87.627,307.298 C86.529,305.168 85.349,303.038 84.273,300.822 C83.256,298.575 82.226,296.298 81.183,293.992 C80.078,291.712 79.249,289.284 78.3,286.871 C77.393,284.444 76.364,282.027 75.628,279.478 C74.827,276.95 74.019,274.397 73.202,271.819 C72.541,269.195 71.873,266.546 71.2,263.874 C68.733,253.134 67.124,241.785 66.713,230.087 C66.454,218.389 67.413,206.97 69.26,196.109 C69.78,193.404 70.295,190.721 70.804,188.066 C71.472,185.445 72.133,182.85 72.787,180.282 C73.376,177.695 74.265,175.224 75.032,172.748 C75.84,170.286 76.53,167.814 77.502,165.475 C78.411,163.114 79.309,160.782 80.196,158.481 C81.143,156.206 82.198,154.013 83.173,151.824 C83.669,150.733 84.161,149.65 84.649,148.575 C85.159,147.511 85.733,146.488 86.265,145.455 C87.348,143.398 88.414,141.374 89.461,139.384 C90.564,137.425 91.748,135.556 92.857,133.692 C94,131.848 95.02,129.974 96.25,128.284 C97.433,126.565 98.591,124.88 99.725,123.231 C100.3,122.413 100.834,121.578 101.426,120.8 C102.028,120.028 102.622,119.265 103.209,118.511 C105.57,115.505 107.735,112.577 110.085,110.055 C112.388,107.497 114.436,104.974 116.648,102.889 C118.807,100.758 120.761,98.719 122.664,96.953 C124.617,95.243 126.403,93.68 128.009,92.273 C128.819,91.579 129.56,90.898 130.299,90.309 C131.052,89.737 131.757,89.202 132.411,88.705 C133.722,87.724 134.833,86.892 135.736,86.217 C137.543,84.887 138.515,84.225 138.569,84.297" id="Fill-54" fill="#FFFFFE"></path>
        <path d="M328.933571,64.313 C328.976,64.488 326.588,65.203 322.225,66.346 C321.13,66.628 319.916,66.941 318.589,67.283 C317.254,67.601 315.793,67.897 314.228,68.237 C311.092,68.887 307.532,69.713 303.547,70.34 C301.557,70.678 299.473,71.033 297.302,71.402 C295.129,71.761 292.851,72.018 290.5,72.345 C285.803,73.039 280.749,73.475 275.435,73.988 C264.792,74.823 253.048,75.275 240.725,75.003 C228.399,74.659 216.689,73.62 206.1,72.255 C200.818,71.477 195.791,70.788 191.134,69.861 C188.802,69.417 186.54,69.046 184.387,68.578 C182.237,68.101 180.174,67.643 178.204,67.206 C174.254,66.38 170.741,65.378 167.641,64.572 C166.094,64.154 164.651,63.786 163.334,63.401 C162.026,62.993 160.829,62.62 159.75,62.284 C155.45,60.924 153.101,60.091 153.152155,59.919 C153.204,59.747 155.649,60.25 160.018,61.307 C161.111,61.576 162.323,61.874 163.648,62.201 C164.985,62.495 166.434,62.815 167.991,63.159 C171.111,63.827 174.635,64.7 178.588,65.405 C180.558,65.788 182.621,66.188 184.77,66.606 C186.92,67.019 189.177,67.338 191.502,67.733 C196.145,68.564 201.15,69.167 206.403,69.875 C216.934,71.1 228.558,72.058 240.79,72.4 C253.02,72.669 264.673,72.293 275.251,71.596 C280.532,71.151 285.561,70.799 290.239,70.202 C292.58,69.923 294.851,69.717 297.019,69.412 C299.186,69.103 301.267,68.806 303.253,68.522 C307.236,68.015 310.8,67.32 313.949,66.808 C315.521,66.542 316.986,66.296 318.335,66.068 C319.675,65.808 320.901,65.571 322.006,65.356 C326.422,64.52 328.89,64.139 328.933571,64.313" id="Fill-55" fill="#FFFFFE"></path>
        <path d="M174.804,384.457 C174.472,385.096 170.515,383.698 165.966,381.334 C161.416,378.971 157.997,376.538 158.328,375.9 C158.66,375.262 162.616,376.66 167.167,379.024 C171.716,381.386 175.135,383.82 174.804,384.457" id="Fill-56" fill="#FFFFFE"></path>
        <path d="M311.117,406.696 C311.117,406.839 277.403,406.956 235.823,406.956 C194.23,406.956 160.523,406.839 160.523,406.696 C160.523,406.552 194.23,406.435 235.823,406.435 C277.403,406.435 311.117,406.552 311.117,406.696" id="Fill-57" fill="#132529"></path>
        <path d="M360.021,97.824 C360.021,97.824 359.828,97.947 359.44,98.164 C359.034,98.388 358.458,98.705 357.708,99.119 C356.132,99.839 353.805,100.963 350.599,101.793 C347.411,102.657 343.394,103.337 338.698,103.442 C334.005,103.588 328.655,103.187 322.824,102.27 C316.987,101.364 310.693,99.888 303.902,98.525 C297.119,97.18 289.785,95.893 282.008,95.996 C274.223,96.017 266.199,98.081 258.365,101.247 C250.494,104.37 242.702,108.462 234.326,111.8 C230.138,113.462 225.892,114.873 221.592,115.81 C217.296,116.758 212.953,117.188 208.696,117.175 C200.167,117.131 192.042,115.59 184.488,113.671 C176.924,111.736 169.87,109.453 163.242,107.433 C156.613,105.424 150.385,103.712 144.603,102.599 C138.828,101.464 133.521,100.859 128.849,100.758 C124.174,100.644 120.153,101.046 116.909,101.58 C113.673,102.177 111.205,102.868 109.565,103.426 C108.757,103.705 108.137,103.92 107.701,104.071 C107.279,104.214 107.058,104.274 107.058,104.274 C107.058,104.274 107.266,104.18 107.682,104.021 C108.115,103.859 108.73,103.627 109.531,103.326 C111.164,102.736 113.631,102.01 116.873,101.381 C120.124,100.814 124.16,100.381 128.855,100.467 C133.547,100.541 138.877,101.122 144.674,102.237 C150.477,103.331 156.725,105.026 163.367,107.02 C170.005,109.024 177.06,111.289 184.607,113.205 C192.143,115.107 200.232,116.628 208.696,116.664 C212.922,116.675 217.224,116.245 221.482,115.304 C225.745,114.373 229.963,112.971 234.134,111.316 C242.475,107.993 250.273,103.903 258.177,100.773 C266.041,97.601 274.152,95.523 282.001,95.516 C289.839,95.426 297.199,96.737 303.987,98.101 C310.783,99.484 317.068,100.98 322.882,101.906 C328.693,102.844 334.019,103.268 338.692,103.151 C343.366,103.074 347.366,102.427 350.546,101.597 C353.745,100.801 356.075,99.712 357.662,99.024 C358.421,98.632 359.004,98.33 359.414,98.117 C359.811,97.916 360.021,97.824 360.021,97.824" id="Fill-58" fill="#132529"></path>
        <path d="M144.104,267.548 C149.089,271.552 153.569,274.621 154.481,280.42 C154.82,282.579 154.778,284.836 155.614,286.856 C156.829,289.788 159.777,291.909 160.361,295.029 C161.048,298.696 158.194,302.415 159.127,306.028 C159.864,308.879 162.756,310.745 163.633,313.558 C164.841,317.432 161.863,321.347 161.625,325.398 C161.453,328.325 162.72,331.118 163.383,333.975 C164.045,336.831 164.244,340.989 161.957,342.824 L152.847,341.377 C154,340.1 154.235,337.784 153.581,336.194 C152.926,334.602 151.911,333.127 151.651,331.426 C151.158,328.213 153.46,325.176 153.476,321.925 C153.495,318.142 150.462,314.961 149.996,311.206 C149.489,307.12 152.091,302.965 150.975,299.002 C150.161,296.115 147.536,294.039 146.578,291.196 C145.69,288.562 146.355,285.695 146.798,282.95 C147.759,277 146.852,273.284 144.104,267.548" id="Fill-59" fill="#E0565F"></path>
        <path d="M167.424,343.693 C171.57,341.926 174.773,336.422 173.975,331.989 C173.471,329.186 171.811,326.212 173.149,323.7 C174.099,321.914 176.3,321.063 177.233,319.268 C179.023,315.82 175.112,311.839 175.702,307.999 C176.241,304.486 180.258,302.517 181.433,299.162 C182.152,297.11 181.699,294.856 181.779,292.681 C181.859,290.507 182.829,288.013 184.944,287.505 C183.278,286.364 180.879,286.983 179.404,288.364 C177.929,289.744 177.157,291.697 176.425,293.579 C175.694,295.462 174.911,297.413 173.424,298.78 C171.252,300.774 167.726,301.405 166.525,304.097 C164.828,307.903 169.251,312.596 167.226,316.237 C165.987,318.465 162.893,319.044 161.477,321.164 C159.204,324.569 162.567,329.315 161.2,333.172 C160.653,334.716 159.415,335.896 158.517,337.265 C157.619,338.634 157.015,340.851 157.959,342.189" id="Fill-60" fill="#E0565F"></path>
        <path d="M120.504,304.048 C120.445,306.06 122.059,307.789 123.887,308.63 C125.716,309.47 127.765,309.649 129.734,310.066 C131.702,310.483 133.739,311.234 134.938,312.85 C136.306,314.696 136.36,317.382 138.053,318.936 C140.383,321.073 144.675,320.013 146.66,322.474 C148.546,324.812 147.055,328.887 149.298,330.885 C150.152,331.646 151.342,331.876 152.362,332.395 C155.166,333.823 156.466,339.104 154.888,341.826 L145.512,340.212 C143.337,339.554 142.306,337.832 141.761,335.626 C141.216,333.42 140.778,330.966 139.02,329.526 C137.138,327.984 134.289,328.098 132.409,326.554 C129.308,324.007 130.442,318.485 127.419,315.845 C125.901,314.52 123.709,314.293 122.004,313.219 C119.043,311.352 118.292,306.761 120.504,304.048" id="Fill-61" fill="#E0565F"></path>
        <path d="M157.356,341.775 C157.397,341.746 157.031,341.487 156.867,340.786 C156.7,340.106 156.833,338.985 157.693,338.021 C158.105,337.533 158.648,337.077 159.248,336.598 C159.845,336.117 160.508,335.597 161.06,334.889 C161.335,334.535 161.571,334.128 161.723,333.673 C161.853,333.215 161.936,332.727 161.895,332.235 C161.831,331.247 161.46,330.305 161.075,329.386 C160.688,328.463 160.3,327.576 160.113,326.681 C159.929,325.79 160.006,324.895 160.2,324.072 C160.395,323.25 160.7,322.493 161.105,321.867 C161.501,321.239 162.056,320.784 162.534,320.34 C163.506,319.475 164.348,318.836 164.941,318.413 C165.533,317.989 165.881,317.783 165.866,317.755 C165.855,317.735 165.48,317.896 164.855,318.284 C164.23,318.672 163.356,319.281 162.349,320.128 C161.862,320.558 161.275,321.012 160.83,321.685 C160.388,322.343 160.058,323.129 159.844,323.987 C159.632,324.84 159.538,325.795 159.732,326.758 C159.926,327.71 160.325,328.623 160.709,329.538 C161.092,330.452 161.444,331.358 161.507,332.259 C161.547,332.708 161.473,333.144 161.362,333.556 C161.23,333.962 161.021,334.335 160.769,334.666 C159.733,335.989 158.296,336.765 157.476,337.842 C156.592,338.885 156.487,340.118 156.717,340.825 C156.823,341.19 156.994,341.439 157.128,341.582 C157.26,341.728 157.35,341.782 157.356,341.775" id="Fill-62" fill="#132529"></path>
        <path d="M182.002,287.677 C182.002,287.677 181.788,287.764 181.449,288.034 C181.109,288.299 180.654,288.772 180.264,289.502 C179.869,290.229 179.567,291.206 179.382,292.357 C179.18,293.51 179.174,294.84 178.978,296.271 C178.78,297.679 178.419,299.319 177.228,300.502 C176.638,301.085 175.846,301.463 175.008,301.811 C174.177,302.166 173.258,302.499 172.488,303.164 C171.715,303.818 171.224,304.813 171.085,305.843 C170.932,306.879 171.058,307.944 171.304,308.977 C171.545,310.015 171.957,311.026 172.362,312.022 C172.756,313.025 173.143,314.049 173.354,315.119 C173.576,316.184 173.579,317.284 173.221,318.262 C172.87,319.246 172.152,320.034 171.374,320.706 C170.586,321.377 169.732,321.956 168.95,322.616 C168.17,323.267 167.443,324.02 167.036,324.947 C166.599,325.861 166.556,326.873 166.637,327.793 C166.728,328.72 166.936,329.59 167.116,330.425 C167.304,331.26 167.445,332.067 167.488,332.849 C167.515,333.632 167.458,334.385 167.338,335.094 C166.801,337.946 165.33,339.928 164.168,341.024 C162.993,342.146 162.147,342.52 162.18,342.568 C162.186,342.579 162.386,342.476 162.763,342.265 C163.133,342.044 163.664,341.689 164.274,341.137 C165.485,340.059 167.027,338.067 167.614,335.146 C167.747,334.418 167.815,333.644 167.795,332.835 C167.758,332.026 167.62,331.196 167.439,330.357 C167.264,329.517 167.066,328.655 166.985,327.762 C166.913,326.875 166.963,325.935 167.369,325.098 C167.747,324.249 168.429,323.54 169.194,322.907 C169.957,322.268 170.816,321.69 171.627,321.002 C172.429,320.314 173.206,319.474 173.593,318.398 C173.985,317.331 173.975,316.148 173.744,315.042 C173.31,312.803 172.151,310.895 171.682,308.886 C171.442,307.885 171.32,306.865 171.46,305.899 C171.589,304.935 172.029,304.041 172.729,303.441 C174.144,302.238 176.178,302.05 177.459,300.738 C178.088,300.106 178.506,299.336 178.764,298.57 C179.032,297.802 179.166,297.035 179.257,296.308 C179.438,294.847 179.423,293.527 179.601,292.39 C179.763,291.253 180.037,290.292 180.401,289.574 C181.136,288.114 182.057,287.724 182.002,287.677" id="Fill-63" fill="#132529"></path>
        <path d="M147.642,274.735 C147.585,274.77 148.464,275.388 149.071,277.079 C149.361,277.919 149.565,279 149.606,280.267 C149.663,281.534 149.518,282.98 149.5,284.594 C149.492,286.188 149.604,288.055 150.589,289.748 C151.544,291.436 153.167,292.746 154.245,294.529 C154.771,295.421 155.108,296.446 155.243,297.529 C155.385,298.612 155.357,299.74 155.285,300.887 C155.156,303.167 154.778,305.617 155.433,308.064 C156.12,310.501 157.736,312.388 158.565,314.501 C158.981,315.55 159.182,316.666 158.985,317.725 C158.795,318.785 158.281,319.748 157.817,320.702 C157.351,321.653 156.906,322.639 156.805,323.682 C156.697,324.716 156.853,325.71 157.031,326.639 C157.209,327.57 157.415,328.454 157.491,329.316 C157.578,330.174 157.51,331 157.316,331.769 C156.929,333.306 156.258,334.607 155.742,335.772 C155.214,336.933 154.811,337.973 154.64,338.867 C154.452,339.76 154.53,340.475 154.587,340.945 C154.643,341.155 154.689,341.327 154.726,341.468 C154.759,341.585 154.78,341.644 154.786,341.642049 C154.793,341.64 154.786,341.577 154.765,341.457 C154.739,341.316 154.706,341.144 154.667,340.932 C154.636,340.466 154.584,339.769 154.792,338.899 C154.982,338.028 155.398,337.014 155.945,335.865 C156.477,334.711 157.171,333.415 157.589,331.835 C157.798,331.049 157.879,330.174 157.796,329.288 C157.725,328.4 157.524,327.502 157.355,326.578 C157.185,325.657 157.044,324.693 157.153,323.721 C157.251,322.747 157.676,321.808 158.146,320.864 C158.61,319.918 159.148,318.933 159.358,317.793 C159.575,316.652 159.359,315.449 158.926,314.359 C158.063,312.166 156.463,310.283 155.816,307.958 C155.187,305.625 155.545,303.21 155.674,300.91 C155.744,299.754 155.77,298.601 155.619,297.479 C155.476,296.357 155.117,295.275 154.559,294.341 C153.418,292.487 151.798,291.199 150.873,289.582 C149.923,287.98 149.79,286.175 149.781,284.595 C149.781,282.998 149.906,281.542 149.828,280.257 C149.766,278.974 149.535,277.876 149.216,277.027 C148.891,276.177 148.481,275.589 148.167,275.234 C147.854,274.874 147.642,274.735 147.642,274.735" id="Fill-64" fill="#132529"></path>
        <path d="M123.65,309.484 C123.65,309.484 123.621,309.645 123.67,309.947 C123.714,310.248 123.859,310.697 124.22,311.16 C124.574,311.627 125.137,312.096 125.873,312.472 C126.603,312.867 127.528,313.111 128.524,313.325 C129.515,313.558 130.629,313.78 131.63,314.386 C132.65,314.974 133.328,316.1 133.653,317.384 C134.015,318.665 134.06,320.099 134.456,321.554 C134.658,322.275 134.932,323.006 135.387,323.659 C135.828,324.317 136.5,324.864 137.289,325.118 C138.887,325.604 140.456,325.159 141.841,325.468 C143.254,325.732 144.185,326.943 144.651,328.156 C145.146,329.385 145.252,330.675 145.454,331.866 C145.644,333.057 145.93,334.189 146.476,335.092 C147.558,336.913 149.156,337.767 150.234,338.119 C150.784,338.306 151.234,338.358 151.534,338.396 C151.838,338.412 151.996,338.414 151.997056,338.401 C152.004,338.355 151.353,338.365 150.285,337.973 C149.247,337.586 147.724,336.714 146.72,334.951 C146.215,334.083 145.954,332.996 145.78,331.815 C145.592,330.637 145.502,329.322 144.991,328.021 C144.74,327.376 144.388,326.738 143.88,326.195 C143.382,325.645 142.678,325.248 141.924,325.087 C140.413,324.763 138.845,325.193 137.413,324.741 C136.711,324.512 136.119,324.037 135.712,323.433 C135.292,322.836 135.028,322.143 134.831,321.45 C134.444,320.06 134.389,318.616 134.007,317.286 C133.667,315.962 132.91,314.722 131.801,314.105 C130.72,313.47 129.579,313.269 128.585,313.051 C127.579,312.852 126.691,312.637 125.973,312.273 C125.251,311.927 124.697,311.495 124.341,311.064 C123.612,310.182 123.714,309.458 123.65,309.484" id="Fill-65" fill="#132529"></path>
        <path d="M154.143,322.505 C154.119,322.492 153.965,322.745 153.706,323.215 C153.456,323.689 153.116,324.388 152.771,325.284 C152.072,327.067 151.375,329.669 151.259,332.608 C151.198,334.075 151.279,335.478 151.454,336.737 C151.612,337.999 151.933,339.129 152.383,339.994 C152.825,340.868 153.413,341.444 153.877,341.729 C154.109,341.872 154.299,341.964 154.437,342.005 C154.572,342.052 154.644,342.07 154.649,342.057 C154.664,342.021 154.383,341.916 153.965,341.603 C153.549,341.289 153.027,340.722 152.635,339.87 C152.237,339.025 151.953,337.931 151.818,336.689 C151.665,335.447 151.596,334.069 151.656,332.625 C151.77,329.735 152.411,327.167 153.035,325.38 C153.651,323.583 154.209,322.537 154.143,322.505" id="Fill-66" fill="#132529"></path>
        <path d="M375.427,301.151 C375.692,300.679 375.954,300.124 375.766,299.617 C375.399,298.624 373.881,298.905 373.065,299.578 C370.78,301.465 369.744,304.998 366.875,305.741 C366.205,305.914 365.481,305.91 364.862,306.221 C363.606,306.853 363.284,308.451 362.865,309.794 C362.446,311.138 361.356,312.632 359.987,312.309 C359.223,312.128 358.714,311.434 358.098,310.949 C357.482,310.463 356.444,310.246 356.01,310.9 C355.713,311.347 355.88,311.939 356.022,312.456 C357.023,316.108 356.195,320.068 354.529,323.467 C352.861,326.867 350.404,329.806 347.973,332.708 C347.217,325.503 354.291,319.31 353.858,312.078 C353.753,310.331 353.206,308.639 353.036,306.898 C352.608,302.517 355.213,297.66 359.51,296.703 C360.293,296.53 361.196,296.431 361.668,295.782 C362.388,294.789 361.372,293.302 360.161,293.105 C358.951,292.908 357.776,293.536 356.71,294.143 C357.237,291.851 359.32,290.004 361.659,289.755 C362.829,289.631 364.056,289.864 365.158,289.455 C366.262,289.046 367.075,287.538 366.257,286.694 C364.959,285.355 362.396,287.846 360.963,286.653 C360.006,285.856 360.608,284.325 361.214,283.238 C361.82,282.15 362.214,280.482 361.109,279.909 C359.954,279.31 358.815,280.72 358.269,281.902 C355.294,288.34 352.319,294.779 349.344,301.218 C348.48,303.087 347.595,305.082 347.849,307.125 C348.026,308.541 348.734,309.825 349.25,311.154 C349.767,312.484 350.088,314.013 349.493,315.309 C348.898,316.606 347.057,317.358 345.975,316.429 C345.401,315.936 345.196,315.148 345.024,314.41 C344.315,311.403 343.607,308.247 344.399,305.26 C345.161,302.384 347.273,299.864 347.326,296.889 C347.367,294.608 346.202,292.153 347.315,290.161 C347.858,289.192 348.839,288.568 349.728,287.901 C350.617,287.235 351.5,286.397 351.672,285.299 C351.845,284.201 350.897,282.916 349.816,283.173 C348.309,283.533 348.16,286.196 346.614,286.284 C345.646,286.339 344.991,285.158 345.194,284.209 C345.397,283.261 346.145,282.539 346.856,281.88 C348.139,280.69 349.423,279.5 350.706,278.311 C351.617,277.466 352.615,276.324 352.234,275.142 C351.865,274.001 350.329,273.62 349.218,274.069 C348.108,274.516 347.337,275.522 346.621,276.482 C346.866,275.617 347.113,274.722 346.998,273.829 C346.883,272.938 346.31,272.04 345.435,271.833 C344.142,271.529 342.981,272.85 342.735,274.156 C342.488,275.461 342.803,276.812 342.661,278.133 C342.52,279.453 341.641,280.9 340.312,280.909 C339.134,280.918 338.222,279.722 338.147,278.545 C338.072,277.369 338.615,276.246 339.215,275.232 C339.814,274.216 340.495,273.214 340.743,272.062 C340.991,270.91 340.683,269.537 339.674,268.927 C338.665,268.317 337.026,269.008 337.074,270.186 C336.843,268.728 336.136,266.867 334.664,266.989 C333.28,267.102 332.805,268.881 332.796,270.269 C332.77,274.568 333.792,278.868 335.749,282.696 C336.947,285.038 338.485,287.198 339.614,289.574 C340.743,291.95 341.455,294.653 340.858,297.214 C340.494,298.774 339.669,300.183 339.11,301.683 C337.619,305.674 338.126,310.357 340.436,313.937 C339.481,314.024 338.712,313.23 337.96,312.634 C337.209,312.038 335.996,311.646 335.385,312.385 C334.938,312.924 335.141,313.781 335.616,314.295 C336.093,314.81 336.767,315.081 337.393,315.396 C340.409,316.911 342.697,319.807 343.476,323.091 C341.713,323.314 340.269,320.409 338.748,321.327 C337.755,321.927 338.2,323.551 339.127,324.249 C340.053,324.949 341.276,325.191 342.151,325.952 C343.481,327.112 343.555,329.424 342.302,330.666 C341.049,331.908 339.101,331.382 337.59,330.472 C332.78,327.573 331.844,322.29 331.844,322.29 C330.916,319.54 332.017,316.529 332.348,314.319 C332.754,311.618 334.625,309.267 334.841,306.544 C335.065,303.724 333.64,300.697 334.908,298.167 C335.536,296.916 336.715,296.057 337.722,295.084 C338.727,294.111 339.637,292.819 339.454,291.431 C339.273,290.043 337.415,288.973 336.403,289.94 C335.904,290.415 335.689,291.263 335.016,291.409 C334.33,291.556 333.755,290.782 333.749,290.081 C333.743,289.381 334.088,288.731 334.257,288.051 C334.426,287.371 334.351,286.52 333.751,286.158 C333.103,285.766 332.211,286.224 331.87,286.901 C331.53,287.576 331.584,288.376 331.648,289.131 C331.821,291.229 331.995,293.326 332.169,295.424 C332.215,295.977 332.191,296.665 331.693,296.911 C331.219,297.147 330.669,296.793 330.29,296.422 C328.486,294.653 327.584,292.075 327.61,289.547 C327.635,287.019 328.531,284.549 329.892,282.418 C330.531,281.417 331.279,280.467 331.69,279.352 C332.099,278.237 332.104,276.877 331.334,275.972 C330.565,275.068 328.895,274.976 328.283,275.994 C327.757,276.871 328.202,277.979 328.292,278.997 C328.492,281.283 326.847,283.253 325.872,285.33 C324.016,289.284 324.706,294.3 327.561,297.607 C328.489,298.682 329.614,299.578 330.502,300.688 C331.39,301.797 332.039,303.22 331.777,304.617 C331.513,306.013 330.049,307.211 328.692,306.791 C327.591,306.45 326.99,305.265 326.717,304.146 C326.444,303.026 326.361,301.826 325.761,300.842 C325.161,299.858 323.775,299.21 322.839,299.883 C322.208,300.336 322.028,301.202 322.066,301.978 C322.241,305.582 325.775,308.006 327.367,311.244 C328.593,313.737 328.594,316.797 327.37,319.29 C326.794,318.383 326.153,317.421 325.153,317.03 C324.152,316.637 322.734,317.187 322.682,318.261 C322.654,318.837 323.013,319.358 323.397,319.787 C324.505,321.028 325.975,321.94 327.577,322.383 C327.247,325.215 328.918,327.925 330.976,329.899 C333.033,331.872 335.518,333.365 337.538,335.376 C339.559,337.387 341.022,340.724 340.533,343.533 L353.353,343.444 C353.518,340.759 355.512,338.284 358.1,337.55 C359.461,337.164 360.938,337.221 362.242,336.674 C363.547,336.127 364.637,334.58 363.976,333.329 C363.568,332.558 362.622,332.196 361.749,332.232 C360.877,332.267 360.054,332.624 359.255,332.977 C360.005,332.42 360.126,331.192 359.499,330.499 C358.872,329.806 357.638,329.804 357.009,330.495 C356.415,331.149 356.422,332.139 356.063,332.945 C355.703,333.751 354.451,334.305 354.007,333.542 C353.784,333.161 353.924,332.681 354.069,332.264 C354.822,330.091 355.648,327.811 357.397,326.317 C361.007,323.234 367.187,324.595 370.427,321.126 C371.028,320.484 371.499,319.596 371.272,318.745 C370.886,317.306 368.854,317.06 367.498,317.68 C366.143,318.3 365.052,319.454 363.625,319.887 C362.199,320.32 360.201,319.43 360.412,317.954 C360.544,317.032 361.484,316.433 362.395,316.231 C363.305,316.028 364.263,316.09 365.16,315.839 C366.059,315.587 366.945,314.866 366.925,313.934 C366.91,313.199 366.016,312.651 365.404,312.842 C369.468,309.653 372.898,305.657 375.427,301.151" id="Fill-67" fill="#334F55"></path>
        <path d="M344.589,143.409 C344.589,143.409 346.484,141.66 344.589,143.409 C342.076,145.729 356.766,168.343 353.093,170.275 C349.421,172.208 326.614,183.032 329.32,183.418 C332.026,183.805 356.572,177.427 357.346,179.359 C358.118,181.292 360.051,209.124 362.95,208.158 C365.85,207.192 364.883,179.939 368.943,180.906 C373.001,181.872 395.229,188.83 396.388,186.704 C397.547,184.578 373.256,174.492 372.614,170.855 C372.034,167.569 384.211,145.729 382.279,146.308 C380.346,146.888 365.646,164.344 362.762,163.704 C359.279,162.93 346.908,142.443 344.589,143.409" id="Fill-68" fill="#E0565F"></path>
        <path d="M215.065,354.176 C213.187,346.531 215.826,337.95 221.675,332.68 C227.524,327.41 236.334,325.679 243.742,328.341 C247.383,324.626 253.304,324.226 258.372,325.394 C260.805,325.954 263.157,326.815 265.503,327.672 C268.181,328.652 271.017,329.745 272.704,332.044 C274.391,330.241 277.902,330.899 278.82,333.19 C279.311,332.159 280.887,332.02 281.754,332.763 C282.622,333.506 282.828,334.808 282.558,335.918 C282.288,337.029 281.624,337.995 280.974,338.935 C278.801,342.073 276.193,345.49 272.409,346.001 C270.462,351.082 264.569,354.304 259.24,353.2 C260.048,355.577 257.847,357.856 255.764,359.258 C249.317,363.602 241.523,366.283 233.782,365.556 C226.042,364.828 218.379,361.208 215.065,354.176" id="Fill-69" fill="#E0565F"></path>
        <path d="M259.24,353.2 C259.23,353.234 258.801,353.124 258.029,352.895 C257.648,352.766 257.159,352.664 256.635,352.433 C256.09,352.199 255.493,351.941 254.845,351.66 C252.279,350.399 248.917,347.824 246.913,343.818 C244.892,339.847 244.302,335.822 243.983,332.984 C243.832,331.553 243.757,330.393 243.733,329.59 C243.705,328.787 243.706,328.343 243.742,328.340993 C243.779,328.339 243.845,328.779 243.935,329.575 C244.021,330.371 244.152,331.523 244.348,332.939 C244.758,335.749 245.404,339.71 247.375,343.577 C249.327,347.476 252.532,350.003 255.015,351.333 C255.642,351.634 256.219,351.911 256.745,352.164 C257.252,352.417 257.727,352.546 258.094,352.702 C258.84,352.99 259.25,353.165 259.24,353.2" id="Fill-70" fill="#132529"></path>
        <path d="M272.409,346.001 C272.398,346.035 272.07,345.944 271.482,345.747 C270.903,345.531 270.072,345.177 269.126,344.59 C267.229,343.462 264.848,341.293 263.405,338.176 C262.681,336.631 262.266,335.035 262.122,333.565 C261.955,332.104 262.099,330.706 262.608,329.673 C263.113,328.632 263.904,328.046 264.486,327.806 C265.078,327.564 265.442,327.605 265.441,327.629 C265.448,327.675 265.1,327.706 264.573,327.989 C264.057,328.267 263.363,328.855 262.943,329.826 C262.516,330.796 262.412,332.099 262.599,333.513 C262.764,334.931 263.178,336.463 263.877,337.955 C265.269,340.962 267.523,343.1 269.325,344.281 C271.128,345.504 272.451,345.9 272.409,346.001" id="Fill-71" fill="#132529"></path>
        <path d="M279.795,340.581 C279.828,340.613 279.094,341.084 277.778,340.962 C276.478,340.854 274.777,340.028 273.458,338.565 C272.101,337.05 271.828,335.107 272.014,333.853 C272.191,332.564 272.691,331.899 272.729,331.93 C272.816,331.965 272.452,332.67 272.381,333.887 C272.297,335.077 272.615,336.846 273.845,338.215 C275.089,339.594 276.641,340.408 277.826,340.597 C279.024,340.804 279.771,340.485 279.795,340.581" id="Fill-72" fill="#132529"></path>
        <path d="M282.248,336.815 C282.293,336.836 282.021,337.356 281.185,337.665 C280.775,337.809 280.23,337.878 279.654,337.724 C279.089,337.561 278.487,337.211 278.153,336.557 C277.581,335.272 277.907,334.011 278.35,333.278 C278.823,332.493 279.497,332.457 279.475,332.522 C279.506,332.605 278.99,332.746 278.671,333.456 C278.357,334.117 278.151,335.305 278.616,336.32 C278.845,336.791 279.342,337.117 279.789,337.264 C280.253,337.413 280.713,337.394 281.081,337.313 C281.827,337.136 282.188,336.745 282.248,336.815" id="Fill-73" fill="#132529"></path>
        <path d="M240.464048,330.048 C240.453,330.147 238.873,329.86 236.325,330.016 C233.794,330.158 230.261,330.883 226.888,332.818 C223.514,334.752 221.104,337.436 219.703,339.548 C218.282,341.669 217.732,343.178 217.641,343.137 C217.612,343.126 217.72,342.741 217.99,342.07 C218.258,341.399 218.712,340.451 219.394,339.348 C220.738,337.148 223.165,334.352 226.629,332.366 C230.091,330.379 233.73,329.697 236.309,329.648 C237.605,329.616 238.652,329.702 239.366,329.81 C240.082,329.916 240.469,330.017 240.464048,330.048" id="Fill-74" fill="#FFFFFE"></path>
        <path d="M261.128,328.83 C261.078,328.905 260.269,328.338 258.815,327.756 C257.373,327.17 255.231,326.638 252.858,326.813 C250.485,326.988 248.443,327.828 247.102,328.618 C245.749,329.408 245.031,330.087 244.972,330.021 C244.932,329.985 245.565,329.2 246.908,328.306 C248.236,327.411 250.342,326.476 252.82,326.293 C255.296,326.111 257.517,326.728 258.96,327.417 C260.42,328.107 261.162,328.789 261.128,328.83" id="Fill-75" fill="#FFFFFE"></path>
        <path d="M252.985,347.502 C252.959,347.557 252.394,347.383 251.591,346.873 C250.79,346.369 249.782,345.484 248.968,344.274 C248.158,343.059 247.724,341.79 247.562,340.858 C247.397,339.921 247.451,339.332 247.512,339.33 C247.673,339.3 247.819,341.665 249.401,343.984 C250.942,346.329 253.073,347.365 252.985,347.502" id="Fill-76" fill="#FFFFFE"></path>
        <path d="M266.04,339.327 C265.951,339.428 264.882,338.486 264.236,336.893 C263.576,335.304 263.676,333.883 263.81,333.892948 C263.964,333.884 264.097,335.21 264.717,336.696 C265.32,338.187 266.155,339.225 266.04,339.327" id="Fill-77" fill="#FFFFFE"></path>
        <path d="M275.759,338.28 C275.677,338.389 274.87,337.844 274.367,336.792 C273.857,335.744 273.932,334.775 274.069,334.778 C274.219,334.767 274.375,335.626 274.836,336.566 C275.285,337.512 275.861,338.168 275.759,338.28" id="Fill-78" fill="#FFFFFE"></path>
        <path d="M280.141,336.848 C280.115,336.909 279.922,336.91 279.657,336.765 C279.395,336.622 279.086,336.312 278.913,335.883 C278.741,335.453 278.748,335.016 278.84,334.732 C278.93,334.443 279.07,334.31 279.131,334.337 C279.265,334.397 279.11,335.013 279.397,335.689 C279.656,336.375 280.195,336.712 280.141,336.848" id="Fill-79" fill="#FFFFFE"></path>
        <path d="M271.528,332.803 C271.406,332.904 270.362,331.274 268.248,330.471 C266.153,329.62 264.279,330.104 264.258,329.948 C264.239,329.89 264.677,329.676 265.449,329.579 C266.217,329.479 267.323,329.551 268.438,329.987 C269.551,330.426 270.41,331.125 270.904,331.722 C271.405,332.319 271.58,332.773 271.528,332.803" id="Fill-80" fill="#FFFFFE"></path>
        <path d="M276.904,332.394 C276.808,332.503 276.199,332.093 275.357,332.173 C274.511,332.221 273.971,332.717 273.859,332.624 C273.807,332.583 273.875,332.378 274.122,332.147 C274.364,331.916 274.8,331.694 275.318,331.654 C275.834,331.616 276.299,331.771 276.572,331.962 C276.852,332.154 276.949,332.346 276.904,332.394" id="Fill-81" fill="#FFFFFE"></path>
        <path d="M281.073,149.553 C280.252,143.21 276.065,137.402 270.307,134.618 C269.039,134.005 267.581,133.526 266.24,133.956 C265.623,134.154 265.076,134.533 264.461,134.739 C263.195,135.163 261.819,134.808 260.501,134.584 C259.284,134.377 257.967,134.301 256.882,134.889 C255.798,135.479 255.12,136.951 255.767,138.002 C256.144,138.614 256.844,138.932 257.504,139.217 C265.521,142.667 273.537,146.117 281.553,149.567 L281.073,149.553" id="Fill-82" fill="#E0565F"></path>
        <path d="M280.11,148.129 C280.102,148.129 280.091,148.127 280.079,148.122 C280.013,148.076 279.946,148.03 279.879,147.984 C272.608,141.988 257.053,138.21 257.053,138.21 C258.039,137.105 259.432,136.78 260.926,136.78 C262.121,136.78 263.382,136.988 264.552,137.173 C273.063,138.515 280.646,148.13 280.11,148.129" id="Fill-83" fill="#A93B44"></path>
        <path d="M249.884,137.176 C247.672,134.077 245.425,130.94 242.49,128.514 C239.555,126.089 235.803,124.416 232.01,124.758 C230.583,124.887 229.062,125.384 228.283,126.586 C227.944,127.11 227.766,127.738 227.347,128.2 C226.518,129.115 225.034,129.096 224.085,129.886 C222.656,131.074 223.2,133.565 224.662,134.712 C226.124,135.859 228.099,136.035 229.952,136.167 C236.636,136.643 243.319,137.118 250.002,137.593" id="Fill-84" fill="#E0565F"></path>
        <path d="M226.989,155.676 C225.233,155.851 223.52,155.13 221.935,154.352 C220.351,153.575 218.746,152.709 216.987,152.565 C215.228,152.421 213.246,153.227 212.644,154.886 C211.871,157.014 213.635,159.188 215.412,160.591 C221.467,165.37 229.458,167.618 237.116,166.696" id="Fill-85" fill="#E0565F"></path>
        <path d="M289.931,160.577 C287.754,153.189 280.209,144.535 256.75,138.423 C233.292,132.31 215.713,136.191 215.713,136.191 C215.713,136.191 211.712,137.498 195.187,139.395 C178.662,141.293 173.735,154.508 180.937,158.782 C183.753,160.453 193.945,148.909 193.945,148.909 C188.706,156.49 193.945,164.935 197.631,167.642 C201.316,170.349 204.945,168.048 208.338,163.938 C211.731,159.828 208.403,149.657 208.403,149.657 C208.403,149.657 210.206,147.508 217.764,148.6 C225.322,149.694 232.679,165.878 237.287,168.454 C241.895,171.032 260.822,180.522 276.206,180.053 C291.59,179.583 292.107,167.967 289.931,160.577" id="Fill-86" fill="#FFFFFE"></path>
        <polyline id="Fill-87" fill="#E0565F" points="219.559 149.141 219.559 149.141 219.56 149.142 219.559 149.141"></polyline>
        <path d="M252.11,137.325 C243.494,135.484 235.851,134.958 229.816,134.98 C229.801,134.991 226.301,137.502 225.918,139.777 C225.534,142.056 225.15,144.335 225.15,144.335 C221.751,144.866 220.04,149.367 220.04,149.367 L220.032,149.363 C225.754,152.292 231.209,162.331 235.262,166.718 C236.628,146.035 250.503,138.169 252.11,137.325" id="Fill-88" fill="#E0565F"></path>
        <path d="M278.903,147.342 L278.831,147.297 C276.437,145.818 273.895,144.482 271.208,143.288 C270.904,143.155 270.594,143.023 270.279,142.891 C270.152,142.836 270.023,142.782 269.894,142.728 C267.807,141.867 265.516,141.03 263.001,140.227 L262.84,140.176 C262.676,140.124 262.503,140.073 262.337,140.021 C260.094,142.585 260.404,145.578 260.429,148.986 C260.454,152.395 260.582,156.02 258.841,158.952 C257.713,160.852 255.911,162.244 254.12,163.539 C251.815,165.206 249.45,166.793 247.034,168.295 C245.668,169.145 244.127,170.319 244.088,171.854 C248.869,174.039 255.352,176.624 262.15,178.303 C262.148,178.263 261.816,165.391 265.588,160.728 C265.588,160.728 270.383,150.888 278.903,147.342" id="Fill-89" fill="#E0565F"></path>
        <path d="M289.931,160.577 C289.313,158.481 288.262,156.284 286.539,154.071 C286.522,154.074 275.977,155.917 273.135,163.962 C270.294,172.006 270.465,179.793 270.465,179.81 C272.409,180.017 274.334,180.11 276.206,180.053 C291.59,179.583 292.107,167.967 289.931,160.577" id="Fill-90" fill="#E0565F"></path>
        <path d="M209.591,148.946 C208.264,145.5 207.319,141.151 206.734,137.892 C203.822,138.33 200.05,138.837 195.187,139.395 C178.662,141.293 173.735,154.508 180.937,158.782 C183.753,160.453 193.945,148.909 193.945,148.909 C188.706,156.49 193.945,164.935 197.631,167.642 C201.316,170.349 204.945,168.048 208.338,163.938 C211.731,159.828 208.403,149.657 208.403,149.657 C208.403,149.657 208.715,149.296 209.591,148.946" id="Fill-91" fill="#E0565F"></path>
        <path d="M247.252,136.558 C247.214,136.628 246.292,136.177 244.778,135.514 C243.264,134.851 241.143,134.006 238.735,133.271 C236.324,132.541 234.092,132.064 232.465,131.772 C230.839,131.479 229.821,131.341 229.827964,131.262 C229.834,131.198 230.865,131.206 232.521,131.408 C234.175,131.608 236.447,132.034 238.887,132.773 C241.323,133.516 243.448,134.427 244.934,135.181 C246.421,135.935 247.283,136.502 247.252,136.558" id="Fill-92" fill="#132529"></path>
        <path d="M286.59,166.444 C286.302,168.153 284.684,169.305 282.976,169.016 C281.267,168.729 280.114,167.11 280.403,165.402 C280.691,163.693 282.309,162.541 284.018,162.829 C285.727,163.117 286.878,164.735 286.59,166.444" id="Fill-93" fill="#FFFFFE"></path>
        <path d="M285.685,166.291 C285.49,167.445 284.398,168.222 283.244,168.028 C282.09,167.834 281.313,166.741 281.507,165.588 C281.701,164.434 282.794,163.657 283.947,163.851 C285.101,164.045 285.879,165.138 285.685,166.291" id="Fill-94" fill="#132529"></path>
        <path d="M288.715,175.006 C288.658,175.138 286.125,174.092 283.059,172.669 C279.99,171.246 277.558,169.989 277.624,169.861 C277.69,169.733 280.223,170.78 283.281,172.199 C286.339,173.617 288.772,174.874 288.715,175.006" id="Fill-95" fill="#132529"></path>
        <path d="M276.965,171.813 C276.912,171.855 276.675,171.697 276.366,171.335 C276.217,171.152 276.048,170.911 275.942,170.585 C275.833,170.265 275.823,169.843 275.983,169.47 C276.146,169.094 276.385,168.808 276.722,168.624 C277.049,168.469 277.331,168.448 277.569,168.429 C278.041,168.409 278.326,168.485 278.325003,168.555 C278.326,168.629 278.047,168.684 277.624,168.793 C277.418,168.85 277.157,168.92 276.952,169.044 C276.773,169.16 276.569,169.408 276.464,169.666 C276.232,170.201 276.469,170.751 276.672,171.13 C276.88,171.513 277.025,171.766 276.965,171.813" id="Fill-96" fill="#132529"></path>
        <path d="M283.577498,150.891 C283.566,150.905 283.338,150.738 282.915,150.409 C282.492,150.081 281.888,149.574 281.056,148.991 C279.421,147.789 276.962,146.164 273.714,144.546 C270.477,142.909 266.447,141.309 261.842,139.964 C257.238,138.604 252.058,137.551 246.578,136.711 C241.097,135.874 235.83,135.407 231.03,135.278 C226.231,135.154 221.905,135.396 218.298,135.796 C214.683,136.171 211.806,136.796 209.814,137.192 C208.862,137.419 208.104,137.601 207.537,137.737 C207.015,137.856 206.738,137.91 206.732931,137.893 C206.728,137.875 206.996,137.787 207.51,137.635 C208.072,137.476 208.823,137.263 209.767,136.994 C211.751,136.536 214.629,135.854 218.255,135.43 C221.873,134.981 226.218,134.7 231.041,134.798 C235.863,134.901 241.156,135.357 246.656,136.196 C252.151,137.038 257.357,138.111 261.978,139.503 C266.601,140.882 270.644,142.528 273.881,144.217 C277.129,145.888 279.572,147.572 281.177,148.828 C281.994,149.439 282.58,149.974 282.984,150.328 C283.384,150.684 283.589,150.878 283.577498,150.891" id="Fill-97" fill="#132529"></path>
        <path d="M244.07,171.846 C244.052,171.842 244.076,171.705 244.139,171.447 C244.195,171.189 244.323,170.813 244.563,170.366 C245.006,169.446 246.075,168.353 247.612,167.419 C248.372,166.94 249.236,166.476 250.139,165.955 C251.037,165.435 251.976,164.827 252.945,164.169 C254.862,162.845 256.954,161.26 258.451,159.048 C259.956,156.827 260.26,154.189 260.308,151.871 C260.356,149.531 260.245,147.397 260.38,145.605 C260.501,143.812 260.856,142.373 261.269,141.453 C261.433,140.976 261.667,140.653 261.787,140.42 C261.92,140.192 261.997,140.077 262.013,140.087 C262.137,140.126 260.834,142.047 260.747,145.626 C260.661,147.395 260.81,149.508 260.788,151.88 C260.767,154.219 260.474,156.991 258.885,159.336 C257.315,161.651 255.165,163.248 253.214,164.567 C252.227,165.221 251.276,165.818 250.352,166.33 C249.43,166.841 248.563,167.283 247.803,167.733 C246.271,168.613 245.222,169.61 244.738,170.467 C244.237,171.309 244.125,171.864 244.07,171.846" id="Fill-98" fill="#132529"></path>
        <path d="M278.739,147.322 C278.757,147.359 278.296,147.61 277.479,148.081 C276.661,148.553 275.499,149.274 274.158,150.29 C271.464,152.292 268.17,155.706 265.762,160.252 C263.335,164.788 262.612,169.497 262.366,172.838 C262.241,174.519 262.215,175.888 262.205,176.833 C262.195,177.779 262.188,178.304 262.15,178.305001 C262.116,178.306 262.055,177.785 262.002,176.837 C261.95,175.889 261.92,174.514 261.998,172.815 C262.153,169.445 262.824,164.642 265.303,160.006 C267.748,155.387 271.154,151.944 273.939,149.994 C275.326,149.003 276.529,148.323 277.382,147.903 C278.236,147.483 278.726,147.294 278.739,147.322" id="Fill-99" fill="#132529"></path>
        <path d="M286.691,154.193 C286.722,154.295 284.865,154.702 282.037,155.763 C280.635,156.312 279.013,157.119 277.527,158.431 C276.033,159.728 274.687,161.487 273.645,163.527 C271.518,167.636 271.134,171.902 270.892,174.905 C270.787,176.341 270.699,177.545 270.63,178.496 C270.561,179.345 270.5,179.813 270.465,179.811006 C270.428,179.809 270.421,179.338 270.428,178.487 C270.438,177.636 270.454,176.405 270.525,174.882 C270.602,173.36 270.72,171.539 271.087,169.543 C271.452,167.548 272.11,165.384 273.181,163.29 C274.249,161.197 275.651,159.389 277.213,158.067 C278.771,156.729 280.468,155.93 281.906,155.418 C283.352,154.904 284.556,154.618 285.386,154.427 C286.217,154.24 286.682,154.159 286.691,154.193" id="Fill-100" fill="#132529"></path>
        <path d="M249.387214,174.126 C249.381,174.143 249.206,174.1 248.878,174.002 C248.551,173.9 248.065,173.761 247.452,173.539 C246.221,173.118 244.457,172.445 242.354,171.437 C240.251,170.431 237.827,169.031 235.397,167.112 C232.983,165.182 230.61,162.671 228.704,159.645 C226.805,156.651 225.169,153.658 222.893,151.64 C220.654,149.575 217.861,148.893 215.61,148.58 C213.326,148.272 211.44,148.471 210.209,148.822 C208.969,149.181 208.439,149.708 208.403,149.657 C208.391,149.643 208.525,149.523 208.796,149.305 C209.076,149.102 209.527,148.851 210.148,148.628 C211.394,148.207 213.32,147.948 215.654,148.215 C216.819,148.346 218.089,148.59 219.4,149.046 C220.704,149.506 222.052,150.227 223.211,151.281 C225.59,153.358 227.257,156.397 229.142,159.364 C231.021,162.345 233.335,164.814 235.698,166.739 C238.076,168.649 240.452,170.068 242.518,171.107 C244.583,172.149 246.318,172.872 247.524,173.35 C248.729,173.83 249.401,174.088 249.387214,174.126" id="Fill-101" fill="#132529"></path>
        <path d="M200.825,144.33 C200.883,144.489 198.522,145.094 196.299,146.967 C194.061,148.816 192.964,150.987 192.815,150.892 C192.704,150.869 193.621,148.513 195.967,146.566 C198.306,144.603 200.831,144.206 200.825,144.33" id="Fill-102" fill="#132529"></path>
        <path d="M202.093,167.41 C202.062,167.421 201.914,167.098 201.708,166.491 C201.501,165.886 201.236,164.996 200.999,163.873 C200.522,161.636 200.176,158.438 200.606,154.943 C200.822,153.198 201.247,151.556 201.845,150.147 C202.442,148.735 203.202,147.565 203.957,146.689 C204.712,145.81 205.447,145.219 205.979,144.859 C206.515,144.501 206.843,144.359 206.859,144.385 C206.919,144.465 205.646,145.156 204.241,146.923 C202.819,148.662 201.509,151.579 201.122,155.008 C200.702,158.431 200.981,161.578 201.361,163.805 C201.744,166.039 202.176,167.385 202.093,167.41" id="Fill-103" fill="#132529"></path>
        <path d="M195.859,142.898 C195.878,142.99 194.575,143.209 192.627,143.999 C190.686,144.775 188.112,146.23 185.902,148.545 C183.692,150.859 182.357,153.498 181.67,155.472 C180.971,157.455 180.812,158.766 180.719,158.751127 C180.687,158.746 180.693,158.416 180.769,157.824 C180.843,157.232 181.009,156.381 181.32,155.356 C181.929,153.315 183.249,150.568 185.526,148.185 C187.8,145.802 190.484,144.357 192.495,143.655 C193.504,143.297 194.347,143.092 194.935,142.99 C195.523,142.887 195.853,142.866 195.859,142.898" id="Fill-104" fill="#132529"></path>
        <path d="M228.953035,160.412 C228.963,160.542 226.836,160.648 224.364,159.869 C221.886,159.107 220.195,157.812 220.277,157.71 C220.36,157.576 222.123,158.637 224.519,159.372 C226.908,160.127 228.962,160.255 228.953035,160.412" id="Fill-105" fill="#132529"></path>
        <path d="M252.11,137.325 C252.163,137.416 250.368,138.303 247.878,140.301 C245.382,142.276 242.355,145.568 240.018,149.846 C237.673,154.11 236.618,158.464 236.042,161.592 C235.758,163.165 235.583,164.449 235.475,165.338 C235.363,166.227 235.301,166.72 235.262,166.718006 C235.23,166.716 235.223,166.218 235.273,165.32 C235.32,164.422 235.439,163.124 235.679,161.531 C236.167,158.365 237.173,153.941 239.563,149.593 C240.758,147.436 242.122,145.511 243.522,143.894 C244.932,142.286 246.362,140.983 247.651,140.012 C248.938,139.036 250.054,138.353 250.846,137.925 C251.638,137.496 252.095,137.298 252.11,137.325" id="Fill-106" fill="#132529"></path>
        <path d="M229.881,134.791 C229.936,134.876 229,135.341 227.941,136.566 C226.892,137.775 225.797,139.828 225.854,142.333 C225.844,142.959 225.662,143.732 225.12,144.167 C224.612,144.598 224.084,144.803 223.655,145.106 C222.773,145.691 222.093,146.381 221.594,147.012 C220.599,148.29 220.298,149.286 220.211,149.25 C220.181,149.241 220.22,148.984 220.377,148.544 C220.533,148.105 220.819,147.484 221.298,146.792 C221.78,146.106 222.466,145.351 223.386,144.71 C223.841,144.377 224.387,144.137 224.779,143.787 C225.183,143.449 225.312,142.919 225.334,142.307 C225.333,141.056 225.573,139.785 226.039,138.776 C226.479,137.744 227.094,136.929 227.669,136.318 C228.253,135.712 228.812,135.315 229.217,135.084 C229.621,134.849 229.867,134.764 229.881,134.791" id="Fill-107" fill="#132529"></path>
        <path d="M209.591,148.946 C209.456,149 208.468,146.647 207.734,143.609 C206.994,140.575 206.586,138.085 206.716,138.055 C206.866,138.019 207.504,140.467 208.239,143.483 C208.968,146.499 209.723,148.895 209.591,148.946" id="Fill-108" fill="#132529"></path>
        <path d="M202.813,166.799 C202.515,166.799 202.215,166.623 202.025,166.382 C201.931,166.262 201.858,166.13 201.798,165.99 C201.668,165.414 201.511,164.677 201.361,163.805 C200.981,161.578 200.702,158.431 201.122,155.008 C201.509,151.579 202.819,148.662 204.241,146.923 C205.155,145.773 206.014,145.078 206.485,144.712 L206.489,144.796 C205.272,147.514 204.04,150.285 203.679,153.243 C203.18,157.335 204.384,161.512 203.738,165.583 C203.663,166.053 203.503,166.595 203.056,166.757 C202.977,166.785 202.895,166.799 202.813,166.799 M200.413,157.813 C200.363,156.495 200.418,155.179 200.618,153.872 C201.199,150.067 203.161,146.321 206.466,144.347 L206.477,144.551 C206.342,144.627 206.174,144.728 205.979,144.859 C205.447,145.219 204.712,145.81 203.957,146.689 C203.202,147.565 202.442,148.735 201.845,150.147 C201.247,151.556 200.822,153.198 200.606,154.943 C200.485,155.928 200.425,156.89 200.413,157.813" id="Fill-109" fill="#A93B44"></path>
        <path d="M201.798,165.99 C201.706,165.771 201.646,165.535 201.589,165.304 C200.99,162.849 200.509,160.33 200.413,157.813 C200.425,156.89 200.485,155.928 200.606,154.943 C200.822,153.198 201.247,151.556 201.845,150.147 C202.442,148.735 203.202,147.565 203.957,146.689 C204.712,145.81 205.447,145.219 205.979,144.859 C206.174,144.728 206.342,144.627 206.477,144.551 L206.485,144.712 C206.014,145.078 205.155,145.773 204.241,146.923 C202.819,148.662 201.509,151.579 201.122,155.008 C200.702,158.431 200.981,161.578 201.361,163.805 C201.511,164.677 201.668,165.414 201.798,165.99" id="Fill-110" fill="#051317"></path>
        <path d="M180.993,157.755 C181.132,157.188 181.341,156.404 181.67,155.472 C182.357,153.498 183.692,150.859 185.902,148.545 C187.834,146.521 190.046,145.154 191.869,144.323 C192.282,144.155 192.698,144.009 193.114,143.89 C188.063,147.493 183.66,152.158 180.993,157.755" id="Fill-111" fill="#A93B44"></path>
        <path d="M180.813,158.139 C181.539,152.611 186.538,146.5 191.869,144.323 C190.046,145.154 187.834,146.521 185.902,148.545 C183.692,150.859 182.357,153.498 181.67,155.472 C181.341,156.404 181.132,157.188 180.993,157.755 C180.932,157.883 180.872,158.011 180.813,158.139" id="Fill-112" fill="#051317"></path>
        <path d="M267.343,259.507 C271.186,264.419 275.072,269.378 279.921,273.3 C281.496,274.575 283.437,275.793 285.416,275.36 C286.91,275.033 288.037,273.835 289.027,272.67 C290.233,271.248 291.406,269.741 291.995,267.972 C292.584,266.203 292.495,264.108 291.335,262.649 C290.365,261.429 288.827,260.832 287.343,260.359 C284.43,259.43 281.429,258.773 278.394,258.4 C274.961,257.978 271.384,257.935 268.152,259.162" id="Fill-113" fill="#E0565F"></path>
        <path d="M263.122,260.649 C272.076,263.098 295.232,262.775 307.779,260.223 C320.324,257.671 333.509,258.309 333.509,258.309 C333.509,258.309 348.607,266.177 356.263,265.752 C363.918,265.326 357.751,258.097 356.263,250.441 C354.774,242.785 358.176,239.17 351.371,234.492 C344.567,229.814 330.744,242.361 330.744,242.361 L321.388,241.297 C310.755,236.407 279.708,222.797 259.294,223.86 C238.88,224.923 241.219,242.361 241.219,242.361 C241.219,242.361 240.581,254.482 263.122,260.649" id="Fill-114" fill="#E0565F"></path>
        <path d="M256.204,235.823 C256.204,237.549 254.804,238.949 253.077,238.949 C251.35,238.949 249.95,237.549 249.95,235.823 C249.95,234.095 251.35,232.696 253.077,232.696 C254.804,232.696 256.204,234.095 256.204,235.823" id="Fill-115" fill="#FFFFFE"></path>
        <path d="M255.02,235.823 C255.02,236.895 254.15,237.765 253.077,237.765 C252.004,237.765 251.134,236.895 251.134,235.823 C251.134,234.749 252.004,233.879 253.077,233.879 C254.15,233.879 255.02,234.749 255.02,235.823" id="Fill-116" fill="#132529"></path>
        <path d="M256.497,244.65 C256.468,244.79 252.986,244.189 248.721,243.307 C244.454,242.424 241.02,241.595 241.049,241.453 C241.078,241.313 244.56,241.914 248.826,242.797 C253.091,243.679 256.527,244.509 256.497,244.65" id="Fill-117" fill="#132529"></path>
        <path d="M266.577,223.907 C271.821,221.429 277.117,218.932 282.775,217.652 C285.098,217.126 287.77,216.883 289.643,218.355 C291.526,219.835 291.91,222.487 292.153,224.868 C292.306,226.377 292.403,228.076 291.407,229.22 L278.729,229.991 L266.577,223.907" id="Fill-118" fill="#E0565F"></path>
        <path d="M294.242,230.526 C301.091,228.458 308.267,227.482 315.419,227.643 C316.723,227.672 318.122,227.774 319.142,228.588 C320.972,230.051 320.592,233.031 319.284,234.975 C317.978,236.919 315.989,238.333 314.706,240.293 C309.803,238.822 304.901,237.351 299.997,235.879 C297.29,235.067 294.2,233.893 293.361,231.194" id="Fill-119" fill="#E0565F"></path>
        <path d="M293.98,261.742 C298.087,263.859 302.202,265.979 306.491,267.701 C308.709,268.593 311.008,269.383 313.394,269.517 C315.78,269.651 318.289,269.06 320.073,267.47 C321.859,265.88 322.737,263.183 321.81,260.981 C321.035,259.141 319.174,257.933 317.233,257.469 C315.292,257.005 313.26,257.181 311.279,257.425 C305.298,258.164 299.41,259.51 293.535,260.854" id="Fill-120" fill="#E0565F"></path>
        <path d="M256.323,258.35 C256.323,258.35 262.726,248.32 261.098,238.949 C259.469,229.578 255.603,224.266 255.603,224.266 C260.044,223.465 264.203,223.409 268.1,224.041 C268.1,224.041 271.031,229.066 269.077,241.453 C267.123,253.842 263.122,260.649 263.122,260.649 C260.827,260.274 258.564,259.471 256.323,258.35" id="Fill-121" fill="#FFFFFE"></path>
        <path d="M283.847,227.277 C283.72,227.295 285.22,228.605 283.103,232.979 C280.986,237.353 276.031,240.989 276.079,248.143 C276.126,255.296 284.598,262.304 284.598,262.304 L299.845,261.411 C299.845,261.411 301.971,253.354 301.809,247.654 C301.646,241.954 299.605,231.635 299.605,231.635 C299.673,231.179 285.382,227.052 283.847,227.277" id="Fill-122" fill="#FFFFFE"></path>
        <path d="M321.388,241.297 C321.388,241.297 322.749,243.379 321.388,246.215 C320.026,249.051 317.597,251.519 319.756,254.993 C321.914,258.468 321.914,258.468 321.914,258.468 L333.509,258.309 L330.744,242.361 L321.388,241.297" id="Fill-123" fill="#FFFFFE"></path>
        <path d="M333.509,258.309 C333.509,258.327 333.265,258.342 332.8,258.355 C332.284,258.362 331.61,258.37 330.77,258.382 C329.008,258.396 326.458,258.438 323.313,258.586 C320.168,258.744 316.429,259.029 312.306,259.584 C308.179,260.117 303.69,261.034 298.909,261.686 C296.521,262.014 294.159,262.198 291.895,262.301 C289.627,262.416 287.438,262.502 285.352,262.549 C281.179,262.649 277.415,262.576 274.263,262.382 C271.111,262.194 268.57,261.894 266.824,261.636 C265.95,261.515 265.276,261.391 264.819,261.306 C264.362,261.221 264.124,261.168 264.126972,261.15 C264.13,261.132 264.373,261.151 264.835,261.202 C265.347,261.262 266.017,261.339 266.85,261.435 C268.601,261.631 271.138,261.873 274.282,262.014 C277.427,262.161 281.177,262.195 285.339,262.07 C287.42,262.009 289.604,261.913 291.867,261.791 C294.134,261.681 296.461,261.496 298.84,261.169 C303.592,260.522 308.097,259.617 312.243,259.109 C316.386,258.576 320.143,258.329 323.297,258.218 C326.453,258.117 329.008,258.131 330.772,258.18 C331.612,258.208 332.285,258.232 332.802,258.249 C333.266,258.271 333.509,258.291 333.509,258.309" id="Fill-124" fill="#132529"></path>
        <path d="M321.388184,241.297 C321.381,241.314 321.175,241.247 320.79,241.104 C320.355,240.936 319.799,240.721 319.112,240.456 C317.657,239.89 315.574,239.013 313.015,237.898 C307.886,235.701 300.949,232.289 292.855,229.699 C288.814,228.386 284.877,227.416 281.276,226.648 C280.375,226.457 279.496,226.271 278.642,226.09 C277.784,225.932 276.951,225.778 276.145,225.629 C274.535,225.319 273.03,225.061 271.653,224.85 C268.904,224.385 266.667,224.075 265.124,223.844 C264.398,223.729 263.81,223.636 263.35,223.563 C262.945,223.493 262.733,223.448 262.734986,223.43 C262.737,223.412 262.952,223.422 263.362,223.459 C263.826,223.507 264.418,223.568 265.151,223.644 C266.702,223.812 268.947,224.067 271.709,224.486 C273.093,224.674 274.604,224.911 276.221,225.203 C277.03,225.345 277.867,225.491 278.729,225.64 C279.587,225.815 280.47,225.994 281.375,226.179 C284.993,226.923 288.951,227.883 293.014,229.202 C301.156,231.81 308.083,235.284 313.165,237.561 C315.703,238.719 317.761,239.646 319.191,240.269 C319.862,240.571 320.404,240.816 320.829,241.007 C321.202,241.181 321.395,241.281 321.388184,241.297" id="Fill-125" fill="#132529"></path>
        <path d="M351.460018,241.479 C351.465,241.563 350.454,241.658 348.854,241.956 C347.253,242.252 345.068,242.802 342.77,243.736 C340.475,244.676 338.528,245.814 337.178,246.722 C335.825,247.629 335.037,248.269 334.983,248.204 C334.943,248.16 335.649,247.419 336.965,246.422 C338.278,245.424 340.235,244.212 342.573,243.253 C344.914,242.302 347.159,241.798 348.796,241.593 C350.435,241.384 351.457,241.419 351.460018,241.479" id="Fill-126" fill="#132529"></path>
        <path d="M352.99214,257.174 C352.981,257.238 351.914,257.126 350.221,256.766 C348.529,256.407 346.215,255.766 343.751,254.805 C341.288,253.839 339.154,252.74 337.667,251.855 C336.178,250.971 335.32,250.329 335.355,250.276 C335.397,250.208 336.322,250.739 337.846,251.534 C339.367,252.329 341.503,253.365 343.941,254.32 C346.379,255.271 348.65,255.96 350.309,256.408 C351.967,256.857 353.006,257.096 352.99214,257.174" id="Fill-127" fill="#132529"></path>
        <path d="M333.326,257.310071 C333.253,257.319 333.085,256.474 332.851,255.105 C332.589,253.534 332.29,251.738 331.96,249.753 C331.628,247.77 331.327,245.973 331.065,244.403 C330.842,243.032 330.726,242.178 330.798,242.162 C330.866,242.148 331.111,242.976 331.426,244.331 C331.741,245.688 332.124,247.573 332.474,249.668 C332.823,251.763 333.073,253.67 333.215,255.055 C333.358,256.44 333.397,257.301 333.326,257.310071" id="Fill-128" fill="#132529"></path>
        <path d="M321.98,258.593 C321.95,258.615 321.765,258.422 321.457,258.054 C321.152,257.684 320.717,257.14 320.244,256.414 C319.778,255.69 319.261,254.77 318.955,253.641 C318.648,252.529 318.574,251.153 319.085,249.872 C319.58,248.602 320.349,247.597 320.876,246.622 C321.419,245.662 321.711,244.696 321.835,243.875 C321.964,243.053 321.879,242.375 321.711,241.95 C321.546,241.522 321.353,241.33 321.388,241.297 C321.4,241.279 321.653,241.423 321.896,241.867 C322.14,242.305 322.29,243.042 322.201,243.919 C322.117,244.793 321.847,245.824 321.299,246.85 C320.771,247.873 320.026,248.883 319.572,250.057 C319.107,251.224 319.157,252.46 319.42,253.521 C319.682,254.588 320.141,255.489 320.558,256.222 C321.421,257.68 322.051,258.543 321.98,258.593" id="Fill-129" fill="#132529"></path>
        <path d="M299.605,231.634849 C299.64,231.626 299.776,232.019 299.99,232.741 C300.211,233.459 300.485,234.514 300.779,235.827 C301.366,238.451 301.974,242.143 302.069,246.263 C302.154,250.384 301.656,254.107 301.039,256.73 C300.734,258.042 300.436,259.093 300.182,259.802 C299.938,260.514 299.786,260.902 299.752,260.891228 C299.663,260.863 300.164,259.277 300.679,256.654 C301.198,254.033 301.633,250.352 301.547,246.274 C301.454,242.197 300.91,238.531 300.418,235.901 C300.171,234.585 299.954,233.523 299.794,232.789 C299.64,232.056 299.57,231.645 299.605,231.634849" id="Fill-130" fill="#132529"></path>
        <path d="M283.741,226.8898 C283.759,226.884 283.811,227.013 283.896,227.265 C283.978,227.517 284.064,227.902 284.118,228.406 C284.216,229.411 284.064,230.915 283.374,232.594 C282.716,234.289 281.472,236.068 280.126,237.99 C279.46,238.957 278.781,239.985 278.228,241.119 C277.668,242.248 277.289,243.506 277.062,244.827 C276.609,247.473 276.765,250.091 277.375,252.326 C277.991,254.573 279.219,256.329 280.328,257.703 C281.447,259.081 282.419,260.158 283.033,260.949 C283.654,261.734 283.954,262.2 283.929,262.22 C283.897,262.243 283.543,261.82 282.878,261.079 C282.219,260.331 281.212,259.301 280.044,257.938 C278.889,256.582 277.581,254.788 276.914,252.458 C276.257,250.15 276.083,247.466 276.548,244.739 C276.782,243.378 277.181,242.065 277.77,240.895 C278.35,239.722 279.052,238.682 279.732,237.715 C281.111,235.793 282.352,234.083 283.035,232.451 C283.748,230.836 283.948,229.399 283.916,228.418 C283.873,227.433 283.692,226.903 283.741,226.8898" id="Fill-131" fill="#132529"></path>
        <path d="M272.405,244.705 C276.217,243.227 280.029,241.749 283.84,240.271 C284.847,239.881 285.927,239.484 286.983,239.715 C289.111,240.182 289.903,242.869 289.653,245.034 C289.403,247.199 288.532,249.36 288.974,251.493 C289.261,252.88 290.096,254.215 289.843,255.608 C289.56,257.169 287.936,258.198 286.355,258.33 C284.775,258.462 283.226,257.907 281.737,257.359 C277.905,255.95 274.073,254.541 270.241,253.133" id="Fill-132" fill="#E0565F"></path>
        <path d="M270.240894,253.133 C270.248,253.116 270.433,253.165 270.779,253.275 C271.18,253.408 271.678,253.574 272.287,253.777 C273.658,254.259 275.525,254.915 277.799,255.715 C278.967,256.134 280.237,256.589 281.597,257.077 C282.954,257.559 284.415,258.136 285.993,258.108 C286.77,258.096 287.559,257.877 288.237,257.441 C288.908,257.012 289.46,256.342 289.595,255.544 C289.88,253.908 288.502,252.25 288.592,250.235 C288.609,248.277 289.269,246.509 289.417,244.788 C289.544,243.116 289.1,241.298 287.88,240.376 C287.27,239.935 286.51,239.799 285.786,239.919 C285.058,240.027 284.367,240.306 283.689,240.562 C282.338,241.074 281.076,241.551 279.916,241.991 C277.655,242.83 275.802,243.519 274.44,244.025 C273.834,244.239 273.339,244.413 272.942,244.554 C272.597,244.669 272.412,244.722 272.405,244.705 C272.4,244.689 272.57,244.603 272.904,244.456 C273.291,244.291 273.776,244.086 274.366,243.836 C275.714,243.291 277.547,242.551 279.783,241.647 C280.936,241.19 282.191,240.692 283.533,240.159 C284.206,239.897 284.914,239.595 285.718,239.466 C286.514,239.322 287.437,239.465 288.161,239.987 C288.88,240.512 289.357,241.309 289.626,242.153 C289.898,243.001 289.998,243.912 289.926,244.83 C289.769,246.648 289.121,248.405 289.112,250.234 C289.098,251.149 289.341,251.996 289.656,252.864 C289.95,253.72 290.266,254.659 290.098,255.631 C289.929,256.604 289.261,257.384 288.504,257.861 C287.741,258.346 286.855,258.581 286.003,258.587 C284.289,258.6 282.797,257.977 281.447,257.483 C280.096,256.973 278.832,256.497 277.672,256.061 C275.421,255.197 273.574,254.488 272.217,253.967 C271.621,253.727 271.134,253.531 270.743,253.373 C270.408,253.232 270.236,253.15 270.240894,253.133" id="Fill-133" fill="#132529"></path>
        <path d="M284.573059,248.72 C284.588,248.859 281.739,249.272 278.197,249.399 C274.654,249.533 271.782,249.33 271.786993,249.191 C271.791,249.042 274.654,249.011 278.178,248.878 C281.701,248.752 284.559,248.573 284.573059,248.72" id="Fill-134" fill="#132529"></path>
        <path d="M268.1,224.040701 C268.116,224.034 268.185,224.15 268.3,224.377 C268.406,224.609 268.598,224.938 268.762,225.395 C269.139,226.29 269.551,227.645 269.843,229.361 C270.469,232.796 270.262,237.657 269.327,242.852 C268.422,248.084 266.715,252.592 265.437,255.795 C264.789,257.398 264.233,258.681 263.835,259.562 C263.439,260.443 263.201,260.922 263.168,260.909258 C263.135,260.895 263.309,260.389 263.649,259.485 C264.024,258.492 264.509,257.207 265.094,255.662 C266.281,252.432 267.919,247.935 268.815,242.763 C269.742,237.595 270.002,232.812 269.48,229.416 C269.011,226.007 267.989,224.081 268.1,224.040701" id="Fill-135" fill="#132529"></path>
        <path d="M255.602,224.266 C255.637,224.25 255.868,224.697 256.29,225.498 C256.76,226.39 257.361,227.533 258.08,228.901 C258.82,230.347 259.648,232.12 260.282,234.19 C260.917,236.258 261.404,238.593 261.6,241.087 C261.785,243.579 261.592,245.997 260.992,248.094 C260.375,250.183 259.538,251.941 258.802,253.394 C258.054,254.842 257.375,255.971 256.895,256.742 C256.411,257.512 256.122,257.923 256.092,257.906 C256.061,257.887 256.291,257.44 256.719,256.64 C257.146,255.84 257.773,254.688 258.472,253.23 C259.159,251.773 259.956,250.003 260.529,247.966 C261.087,245.925 261.263,243.57 261.08,241.125 C260.888,238.682 260.423,236.367 259.823,234.328 C259.224,232.284 258.445,230.526 257.75,229.063 C257.054,227.602 256.472,226.42 256.108,225.587 C255.74,224.754 255.57,224.28 255.602,224.266" id="Fill-136" fill="#132529"></path>
        <path d="M257.108,242.116 C257.146,242.075 257.651,242.368 258.27,243.111 C258.562,243.482 258.892,244.036 258.865,244.743 C258.84,245.452 258.376,246.156 257.706,246.551 C257.021,246.959 256.249,246.995 255.615,246.901 C254.972,246.803 254.44,246.57 254.021,246.353 C253.19,245.9 252.748,245.532 252.779,245.477 C252.817,245.406 253.338,245.668 254.176,246.018 C254.596,246.185 255.103,246.364 255.677,246.424 C256.245,246.486 256.898,246.429 257.439,246.105 C257.982,245.783 258.348,245.237 258.386,244.713 C258.433,244.178 258.205,243.694 257.97,243.325 C257.473,242.584 257.045,242.175 257.108,242.116" id="Fill-137" fill="#132529"></path>
        <path d="M318.362003,231.43 C318.36,231.587 314.925,231.554 310.737,232.056 C306.544,232.54 303.212,233.368 303.172,233.216 C303.154,233.151 303.967,232.86 305.319,232.515 C306.668,232.169 308.561,231.789 310.675,231.539 C312.789,231.291 314.719,231.223 316.112,231.245 C317.506,231.268 318.364,231.363 318.362003,231.43" id="Fill-138" fill="#132529"></path>
    </g>
</svg>