<svg viewBox="0 0 24 29" xmlns="http://www.w3.org/2000/svg"><path fill="currentColor" fill-rule="evenodd" clip-rule="evenodd" d="M 21.6112 22.9879L 8.59703 26.837C 8.19945 26.9547 7.81839 26.6108 7.90194 26.2096L 12.5511 3.94434C 12.6381 3.52773 13.2136 3.46185 13.3952 3.84743L 22.0035 22.1271C 22.1659 22.4721 21.9807 22.8788 21.6112 22.9879L 21.6112 22.9879ZM 23.8429 22.0797L 13.8757 0.914195L 13.8757 0.913742C 13.6257 0.38461 13.1041 0.0354772 12.5129 0.0028734C 11.9063 -0.0324474 11.3629 0.260081 11.0564 0.757968L 0.246401 18.2667C -0.0884667 18.8125 -0.0819007 19.4855 0.26542 20.0243L 5.5495 28.2099C 5.86422 28.6985 6.4101 28.9813 6.97727 28.9813C 7.13803 28.9813 7.29969 28.9584 7.45863 28.9113L 22.7969 24.3749C 23.2667 24.2361 23.6509 23.9035 23.852 23.4631C 24.0524 23.0221 24.0492 22.5178 23.8429 22.0797L 23.8429 22.0797Z"/></svg>