<svg fill="none" xmlns="http://www.w3.org/2000/svg"><path d="M17.2 1H2.8A1.8 1.8 0 0 0 1 2.8v3.6a1.8 1.8 0 0 0 1.8 1.8h14.4A1.8 1.8 0 0 0 19 6.4V2.8A1.8 1.8 0 0 0 17.2 1zM17.2 11.8H2.8A1.8 1.8 0 0 0 1 13.6v3.6A1.8 1.8 0 0 0 2.8 19h14.4a1.8 1.8 0 0 0 1.8-1.8v-3.6a1.8 1.8 0 0 0-1.8-1.8z" stroke="currentColor" stroke-width="2" stroke-linecap="round" stroke-linejoin="round"/><circle cx="1" cy="1" r="1" transform="translate(4 3.6)" fill="currentColor"/><circle cx="1" cy="1" r="1" transform="translate(4 14.6)" fill="currentColor"/></svg>