<svg fill="none" xmlns="http://www.w3.org/2000/svg"><path d="M10 12.455a2.455 2.455 0 1 0 0-4.91 2.455 2.455 0 0 0 0 4.91z" stroke="currentColor" stroke-width="2" stroke-linecap="round" stroke-linejoin="round"/><path d="M16.055 12.454a1.35 1.35 0 0 0 .27 1.49l.049.049a1.636 1.636 0 0 1-.531 2.67 1.637 1.637 0 0 1-1.785-.355l-.049-.049a1.35 1.35 0 0 0-1.489-.27 1.35 1.35 0 0 0-.818 1.235v.14a1.636 1.636 0 1 1-3.273 0v-.074a1.35 1.35 0 0 0-.884-1.235 1.35 1.35 0 0 0-1.489.27l-.049.049a1.635 1.635 0 0 1-2.315 0 1.635 1.635 0 0 1 0-2.316l.049-.049a1.35 1.35 0 0 0 .27-1.489 1.35 1.35 0 0 0-1.236-.818h-.139a1.636 1.636 0 1 1 0-3.273h.074a1.35 1.35 0 0 0 1.235-.884 1.35 1.35 0 0 0-.27-1.489l-.049-.049a1.636 1.636 0 1 1 2.316-2.315l.049.049a1.35 1.35 0 0 0 1.489.27h.065a1.35 1.35 0 0 0 .819-1.236v-.139a1.636 1.636 0 1 1 3.272 0v.074a1.35 1.35 0 0 0 .819 1.235 1.35 1.35 0 0 0 1.489-.27l.049-.049a1.637 1.637 0 1 1 2.315 2.316l-.049.049a1.35 1.35 0 0 0-.27 1.489v.065a1.35 1.35 0 0 0 1.235.819h.14a1.636 1.636 0 0 1 0 3.272h-.074a1.35 1.35 0 0 0-1.235.819z" stroke="currentColor" stroke-width="2" stroke-linecap="round" stroke-linejoin="round"/></svg>